<svg width="24" height="24" viewBox="0 0 24 24" fill="none" xmlns="http://www.w3.org/2000/svg">
<path d="M16.5 11.25H12.75V7.5C12.75 7.086 12.414 6.75 12 6.75C11.586 6.75 11.25 7.086 11.25 7.5V11.25H7.5C7.086 11.25 6.75 11.586 6.75 12C6.75 12.414 7.086 12.75 7.5 12.75H11.25V16.5C11.25 16.914 11.586 17.25 12 17.25C12.414 17.25 12.75 16.914 12.75 16.5V12.75H16.5C16.914 12.75 17.25 12.414 17.25 12C17.25 11.586 16.914 11.25 16.5 11.25ZM21 0H3C1.34325 0 0 1.34325 0 3V21C0 22.6567 1.34325 24 3 24H21C22.6567 24 24 22.6567 24 21V3C24 1.34325 22.6567 0 21 0ZM22.5 21C22.5 21.8287 21.828 22.5 21 22.5H3C2.17126 22.5 1.5 21.8287 1.5 21V3C1.5 2.17126 2.17126 1.5 3 1.5H21C21.828 1.5 22.5 2.172 22.5 3V21Z" fill="#6A5949"/>
</svg>
