<svg width="32" height="32" viewBox="0 0 32 32" fill="none" xmlns="http://www.w3.org/2000/svg">
<g clip-path="url(#clip0)">
<path d="M31.4041 6.9375H0.470947C0.17627 6.9375 -0.0625 7.17627 -0.0625 7.47095V24.5376C-0.0625 24.832 0.17627 25.0708 0.470947 25.0708H31.4041C31.6987 25.0708 31.9375 24.832 31.9375 24.5376V7.47095C31.9375 7.17627 31.6987 6.9375 31.4041 6.9375ZM30.8708 24.0042H1.00415V8.00415H30.8708V24.0042Z" fill="#6A5949"/>
<path d="M3.67114 22.4043H13.271C13.5657 22.4043 13.8044 22.1653 13.8044 21.8709V10.1375C13.8044 9.84302 13.5657 9.60425 13.271 9.60425H3.67114C3.37646 9.60425 3.1377 9.84302 3.1377 10.1375V21.8709C3.1377 22.1653 3.37646 22.4043 3.67114 22.4043ZM10.6045 21.3374H6.33765V19.2041C6.33765 18.0259 7.29297 17.0708 8.47119 17.0708C9.64941 17.0708 10.6045 18.0259 10.6045 19.2041V21.3374ZM6.87109 14.4041C6.87109 13.5205 7.5874 12.8042 8.47119 12.8042C9.35474 12.8042 10.071 13.5205 10.071 14.4041C10.071 15.2878 9.35474 16.0042 8.47119 16.0042C7.5874 16.0042 6.87109 15.2878 6.87109 14.4041ZM4.20435 10.6709H12.7378V21.3374H11.6711V19.2041C11.6699 18.0876 11.0862 17.0527 10.1313 16.4739C11.2839 15.5571 11.4749 13.8794 10.5579 12.7271C9.64087 11.5745 7.96338 11.3835 6.81079 12.3005C5.65845 13.2175 5.46729 14.895 6.38428 16.0474C6.51001 16.2053 6.65308 16.3484 6.81079 16.4739C5.85596 17.0527 5.27222 18.0876 5.271 19.2041V21.3374H4.20435V10.6709Z" fill="#6A5949"/>
<path d="M15.9375 9.60425H25.5376V10.6709H15.9375V9.60425Z" fill="#6A5949"/>
<path d="M15.9375 13.8708H28.2041V14.9375H15.9375V13.8708Z" fill="#6A5949"/>
<path d="M15.9375 18.1375H28.2041V19.2041H15.9375V18.1375Z" fill="#6A5949"/>
<path d="M15.9375 21.3374H17.0041V22.4043H15.9375V21.3374Z" fill="#6A5949"/>
<path d="M18.604 21.3374H19.6706V22.4043H18.604V21.3374Z" fill="#6A5949"/>
<path d="M21.271 21.3374H22.3376V22.4043H21.271V21.3374Z" fill="#6A5949"/>
</g>
<defs>
<clipPath id="clip0">
<rect width="32" height="32" fill="white"/>
</clipPath>
</defs>
</svg>
