<svg width="24" height="24" viewBox="0 0 24 24" fill="none" xmlns="http://www.w3.org/2000/svg">
<g clip-path="url(#clip0)">
<path d="M2.81256 24L21.1875 24C22.7383 24 24 22.7383 24 21.1875V17.4375H22.125V21.1875C22.125 21.7044 21.7044 22.125 21.1875 22.125L2.81251 22.125C2.29556 22.125 1.875 21.7044 1.875 21.1875L1.875 2.81251C1.875 2.29556 2.29556 1.875 2.81251 1.875L21.1875 1.875C21.7044 1.875 22.125 2.29556 22.125 2.81251V6.56252H24V2.81251C24 1.26168 22.7383 0 21.1875 0L2.81251 0C1.26168 0 0 1.26168 0 2.81251L0 21.1875C4.76837e-05 22.7383 1.26173 24 2.81256 24Z" fill="#6A5949"/>
<path d="M6.93366 13.937L20.4128 13.937L16.8524 17.4976L18.1774 18.8226L24 13.0001L18.1774 7.17748L16.8524 8.50254L20.4128 12.0631L6.93366 12.0631V13.937Z" fill="#6A5949"/>
</g>
<defs>
<clipPath id="clip0">
<rect x="24" y="24" width="24" height="24" transform="rotate(-180 24 24)" fill="white"/>
</clipPath>
</defs>
</svg>
