<svg width="126" height="150" viewBox="0 0 126 150" fill="none" xmlns="http://www.w3.org/2000/svg">
<path d="M93.3926 133.299C92.7862 133.299 92.1907 133.593 91.7617 134.104C91.3327 134.616 91.0854 135.324 91.0854 136.046C91.0854 136.768 91.3313 137.477 91.7617 137.987C92.1907 138.498 92.7862 138.793 93.3926 138.793C93.9989 138.793 94.5952 138.498 95.0227 137.987C95.4531 137.477 95.6997 136.768 95.6997 136.046C95.6997 135.324 95.4531 134.614 95.0227 134.104C94.5937 133.593 93.9989 133.299 93.3926 133.299Z" fill="#D8D8D8"/>
<path d="M121.498 134.336L104.347 108.68C104.001 108.163 103.508 107.811 102.961 107.691C102.884 107.673 95.1396 105.945 84.4417 101.803C77.2745 99.0275 71.3567 99.0447 66.8557 101.856C65.1484 102.923 63.886 104.255 62.9674 105.537C62.0504 104.255 60.7872 102.923 59.0807 101.856C54.5789 99.0447 48.6625 99.0275 41.4932 101.803C30.796 105.945 23.0506 107.673 22.9749 107.69C22.4269 107.811 21.9352 108.163 21.5891 108.68L4.43783 134.336C3.88556 135.161 3.7803 136.288 4.16386 137.239C4.54886 138.189 5.35636 138.793 6.24244 138.793H55.4412C56.4289 142.605 59.4174 145.385 62.9415 145.385C66.4663 145.385 69.4548 142.605 70.4425 138.793H84.0877C85.361 138.793 86.3949 137.562 86.3949 136.046C86.3949 134.529 85.361 133.3 84.0877 133.3H70.0467L65.5125 127.901C66.0914 126.515 67.5082 123.868 70.4151 122.052C74.8982 119.254 81.1325 119.369 88.9464 122.395C101.075 127.092 110.131 129.389 112.703 130L114.909 133.3H102.775C101.501 133.3 100.468 134.529 100.468 136.046C100.468 137.562 101.501 138.793 102.775 138.793H119.693C120.579 138.793 121.387 138.189 121.771 137.239C122.156 136.288 122.05 135.161 121.498 134.336ZM24.6713 112.891C27.0087 112.324 33.8717 110.531 42.9207 107.027C49.2112 104.59 54.2934 104.649 57.62 107.193C59.5579 108.676 60.3928 110.588 60.661 111.335V119.592C59.8139 118.735 58.824 117.912 57.6639 117.188C52.0396 113.675 44.6034 113.671 35.5624 117.171C28.2892 119.987 22.0758 121.937 17.8083 123.156L24.6713 112.891ZM13.233 130C15.8048 129.389 24.8602 127.092 36.9899 122.396C44.7433 119.393 50.9444 119.258 55.421 121.991C58.3791 123.798 59.8117 126.429 60.4065 127.851L55.8305 133.3H11.0276L13.233 130ZM62.9415 139.891C61.2688 139.891 59.8889 138.371 59.7259 136.432L62.9386 132.606L66.1578 136.438C65.9919 138.376 64.6134 139.891 62.9415 139.891ZM90.3739 117.172C81.3329 113.671 73.8967 113.676 68.2731 117.188C67.1123 117.912 66.1217 118.736 65.2753 119.592V111.328C65.5651 110.521 66.5637 108.241 68.9984 106.721C72.3106 104.653 77.157 104.759 83.0149 107.027C92.0646 110.531 98.9269 112.324 101.265 112.891L108.129 123.159C103.865 121.941 97.6544 119.992 90.3739 117.172Z" fill="#D8D8D8"/>
<path d="M16.4087 97.8713C16.6776 99.1081 17.6141 99.9295 18.6408 99.9295C18.8319 99.9295 19.0265 99.9012 19.2205 99.8411C20.4541 99.4609 21.1945 97.9623 20.8758 96.4937L8.41736 39.2284C8.09724 37.7599 6.8377 36.8775 5.60555 37.2578C4.37196 37.638 3.63079 39.1375 3.95018 40.6052L16.4087 97.8713Z" fill="#FFFBD9"/>
<path d="M106.657 99.8411C106.85 99.9012 107.045 99.9295 107.236 99.9295C108.262 99.9295 109.199 99.1081 109.469 97.8713L121.927 40.6052C122.246 39.1375 121.505 37.638 120.271 37.2578C119.037 36.8775 117.779 37.7599 117.459 39.2284L105.001 96.4937C104.682 97.9623 105.422 99.4609 106.657 99.8411Z" fill="#FFFBD9"/>
<path d="M27.0942 13.7292C28.3682 13.7292 29.4014 12.4984 29.4014 10.9826V7.50732C29.4014 5.99155 28.3682 4.76074 27.0942 4.76074C25.821 4.76074 24.7871 5.99155 24.7871 7.50732V10.9826C24.7871 12.4984 25.821 13.7292 27.0942 13.7292Z" fill="#D8D8D8"/>
<path d="M27.0942 30.3792C28.3682 30.3792 29.4014 29.1492 29.4014 27.6326V24.1582C29.4014 22.6416 28.3682 21.4116 27.0942 21.4116C25.821 21.4116 24.7871 22.6416 24.7871 24.1582V27.6326C24.7871 29.1492 25.821 30.3792 27.0942 30.3792Z" fill="#D8D8D8"/>
<path d="M32.6284 20.3164H35.5469C36.8209 20.3164 37.8541 19.0873 37.8541 17.5698C37.8541 16.0532 36.8209 14.8232 35.5469 14.8232H32.6284C31.3544 14.8232 30.3213 16.0532 30.3213 17.5698C30.3213 19.0873 31.3544 20.3164 32.6284 20.3164Z" fill="#D8D8D8"/>
<path d="M18.6421 20.3164H21.5606C22.8346 20.3164 23.8677 19.0873 23.8677 17.5698C23.8677 16.0532 22.8346 14.8232 21.5606 14.8232H18.6421C17.3681 14.8232 16.335 16.0532 16.335 17.5698C16.335 19.0873 17.3681 20.3164 18.6421 20.3164Z" fill="#D8D8D8"/>
<path d="M88.3096 65.0454C88.3096 63.5288 87.2771 62.2988 86.0024 62.2988C84.7285 62.2988 83.6953 63.5288 83.6953 65.0454V68.5198C83.6953 70.0364 84.7285 71.2655 86.0024 71.2655C87.2771 71.2655 88.3096 70.0364 88.3096 68.5198V65.0454Z" fill="#D8D8D8"/>
<path d="M86.0024 78.9502C84.7285 78.9502 83.6953 80.1793 83.6953 81.6951V85.1703C83.6953 86.6861 84.7285 87.9169 86.0024 87.9169C87.2771 87.9169 88.3096 86.6861 88.3096 85.1703V81.6951C88.3096 80.1793 87.2771 78.9502 86.0024 78.9502Z" fill="#D8D8D8"/>
<path d="M91.5366 72.3608C90.2627 72.3608 89.2295 73.5917 89.2295 75.1074C89.2295 76.6249 90.2627 77.854 91.5366 77.854H94.4551C95.7291 77.854 96.7623 76.6249 96.7623 75.1074C96.7623 73.5917 95.7291 72.3608 94.4551 72.3608H91.5366Z" fill="#D8D8D8"/>
<path d="M80.469 72.3608H77.5498C76.2766 72.3608 75.2427 73.5917 75.2427 75.1074C75.2427 76.6249 76.2766 77.854 77.5498 77.854H80.469C81.7423 77.854 82.7762 76.6249 82.7762 75.1074C82.7762 73.5917 81.7423 72.3608 80.469 72.3608Z" fill="#D8D8D8"/>
<path d="M27.3194 47.0877C26.4506 47.2379 25.7289 47.9623 25.4578 48.957C25.1853 49.9518 25.4124 51.0427 26.0411 51.7723L32.6387 59.4284L31.0807 70.2387C30.9329 71.2687 31.2883 72.3107 31.9985 72.9244C32.4008 73.2728 32.8766 73.4488 33.3554 73.4488C33.7231 73.4488 34.0908 73.3449 34.4282 73.1329L42.5839 68.0295L50.7381 73.1329C51.5146 73.6196 52.4576 73.5389 53.1678 72.9244C53.878 72.3107 54.2334 71.2687 54.0856 70.2387L52.5283 59.4284L59.1252 51.7723C59.7547 51.0427 59.981 49.9518 59.7092 48.957C59.4381 47.9623 58.7164 47.2379 57.847 47.0877L48.7302 45.511L44.6516 35.6748C44.2638 34.7384 43.4613 34.1436 42.5839 34.1436C41.705 34.1436 40.9026 34.7384 40.5147 35.6748L36.4376 45.511L27.3194 47.0877ZM40.0374 49.236L42.5824 43.0965L45.1289 49.236C45.4649 50.0471 46.1138 50.6093 46.865 50.7389L52.5564 51.7225L48.4382 56.5024C47.8946 57.1333 47.6466 58.0422 47.7749 58.934L48.7468 65.682L43.6567 62.496C42.9847 62.0754 42.1816 62.0754 41.5096 62.496L36.4181 65.682L37.3907 58.934C37.5197 58.0422 37.271 57.1333 36.7274 56.5024L32.6092 51.7225L38.2998 50.7389C39.0518 50.6093 39.7014 50.0471 40.0374 49.236Z" fill="#FFFBD9"/>
<path d="M73.5951 25.5435L80.2764 28.0163L82.3528 35.9685C82.613 36.9676 83.3268 37.7023 84.1949 37.8671C84.3153 37.8894 84.4364 37.8997 84.5561 37.8997C85.2965 37.8997 86.0023 37.474 86.4385 36.7393L90.4782 29.9406L97.4731 30.0462C98.3455 30.0548 99.1595 29.478 99.5589 28.5467C99.9569 27.6155 99.8768 26.4954 99.3512 25.6577L95.1667 18.9826L97.414 11.0948C97.6959 10.106 97.481 9.01084 96.8603 8.27098C96.2395 7.53197 95.3195 7.27706 94.4882 7.61266L87.8632 10.2871L82.2569 5.30553C81.5532 4.68154 80.6123 4.58627 79.8301 5.06005C79.0471 5.53556 78.559 6.49686 78.5698 7.54313L78.6592 15.8704L72.9483 20.6778C72.231 21.282 71.864 22.3189 72.001 23.3505C72.1387 24.3839 72.7566 25.2337 73.5951 25.5435ZM82.3146 19.5216C82.9339 18.9998 83.2987 18.1484 83.2886 17.2437L83.2439 13.0371L86.0766 15.5528C86.6844 16.0936 87.4775 16.2438 88.197 15.9528L91.5431 14.6027L90.4082 18.5861C90.1645 19.4418 90.2907 20.386 90.7449 21.1104L92.8581 24.4827L89.3246 24.4286C89.3145 24.4286 89.3044 24.4286 89.2943 24.4286C88.5467 24.4286 87.8437 24.8612 87.4111 25.5899L85.3708 29.0239L84.3218 25.0071C84.0961 24.1436 83.5287 23.4673 82.8041 23.1995L79.4292 21.9507L82.3146 19.5216Z" fill="#FFFBD9"/>
</svg>
