<svg width="16" height="16" viewBox="0 0 16 16" fill="none" xmlns="http://www.w3.org/2000/svg">
<path fill-rule="evenodd" clip-rule="evenodd" d="M11.8969 9.95823L15.9069 13.9683C15.9688 14.0395 16 14.1197 16 14.2089C16 14.298 15.9688 14.3782 15.9069 14.4495L14.4495 15.9064C14.3777 15.9688 14.298 16 14.2089 16C14.1197 16 14.0395 15.9688 13.9683 15.9064L9.95823 11.8964C8.8978 12.5915 7.73489 12.939 6.46951 12.939C4.68683 12.939 3.16302 12.3063 1.89852 11.0409C0.632693 9.77555 0 8.25174 0 6.46951C0 4.68727 0.632693 3.16346 1.89852 1.89808C3.16302 0.632693 4.68683 0 6.46951 0C8.25174 0 9.77555 0.632693 11.0414 1.89808C12.3063 3.16346 12.9395 4.68727 12.9395 6.46951C12.9395 7.73489 12.5919 8.8978 11.8969 9.95823C12.5919 8.8978 11.8969 9.95823 11.8969 9.95823ZM3.34169 3.35505C2.4773 4.21944 2.04511 5.25759 2.04511 6.46951C2.04511 7.68143 2.4773 8.71958 3.34169 9.58396C4.20607 10.4483 5.24868 10.8805 6.46951 10.8805C7.69034 10.8805 8.73072 10.451 9.59064 9.59064C10.4506 8.73072 10.8805 7.69034 10.8805 6.46951C10.8805 5.24868 10.4506 4.2083 9.59064 3.34837C8.73072 2.48844 7.69034 2.05848 6.46951 2.05848C5.24868 2.05848 4.20607 2.49067 3.34169 3.35505Z" fill="#767676"/>
</svg>
