<svg width="42" height="37" viewBox="0 0 42 37" fill="none" xmlns="http://www.w3.org/2000/svg">
<path d="M40.0771 31.2326H39.7481C39.9406 30.8858 40.0506 30.4873 40.0506 30.0634V12.894C40.0506 11.5615 38.9665 10.4773 37.6338 10.4773H31.6723C31.356 10.4773 31.0538 10.539 30.7766 10.6501L31.482 7.9746C31.8218 6.68605 31.0499 5.36133 29.7613 5.02164L27.0204 4.29911C26.3959 4.13447 25.7452 4.22282 25.1874 4.54783C24.6297 4.87284 24.2319 5.39554 24.0673 6.0198L18.4601 27.2875V2.45587C18.4601 1.12327 17.376 0.0390625 16.0433 0.0390625H13.2088C11.8762 0.0390625 10.792 1.12327 10.792 2.45587V30.0262C10.792 30.4654 10.9104 30.8772 11.116 31.2325H9.36657C9.5591 30.8858 9.66911 30.4873 9.66911 30.0633V19.5472C9.66911 19.2027 9.38987 18.9234 9.04534 18.9234C8.70081 18.9234 8.42157 19.2027 8.42157 19.5472V30.0634C8.42157 30.708 7.89707 31.2326 7.2523 31.2326H4.41812C3.77344 31.2326 3.24885 30.7081 3.24885 30.0634V14.4106C3.24885 13.7659 3.77336 13.2413 4.41812 13.2413H7.25263C7.89731 13.2413 8.4219 13.7658 8.4219 14.4106V17.4679C8.4219 17.8124 8.70114 18.0917 9.04567 18.0917C9.3902 18.0917 9.66943 17.8124 9.66943 17.4679V14.4106C9.66943 13.078 8.58531 11.9938 7.25263 11.9938H4.41812C3.08552 11.9938 2.00132 13.078 2.00132 14.4106V30.0635C2.00132 30.4874 2.11132 30.8859 2.30385 31.2327H1.92281C0.862641 31.2326 0 32.0952 0 33.1555V34.6324C0 35.6927 0.862641 36.5554 1.92289 36.5554H12.1011C12.4456 36.5554 12.7249 36.276 12.7249 35.9316C12.7249 35.5871 12.4456 35.3078 12.1011 35.3078H1.92289C1.55047 35.3078 1.24745 35.0049 1.24745 34.6324V33.1555C1.24745 32.7831 1.55047 32.48 1.92289 32.48H4.41812H7.25263H31.6724H37.6339H40.077C40.4494 32.48 40.7525 32.7831 40.7525 33.1555V34.6324C40.7525 35.0048 40.4494 35.3078 40.077 35.3078H14.1804C13.8359 35.3078 13.5566 35.5871 13.5566 35.9316C13.5566 36.276 13.8359 36.5554 14.1804 36.5554H40.077C41.1374 36.5554 42 35.6927 42 34.6324V33.1555C42 32.0952 41.1374 31.2326 40.0771 31.2326ZM17.2129 30.0262C17.2129 30.6709 16.6884 31.1955 16.0437 31.1955H13.2092C12.5645 31.1955 12.0399 30.671 12.0399 30.0262V2.45587C12.0399 1.81118 12.5644 1.28659 13.2092 1.28659H16.0437C16.6884 1.28659 17.2129 1.8111 17.2129 2.45587V30.0262ZM18.1365 31.2326C18.2428 31.0488 18.3261 30.8499 18.3812 30.6398C18.5268 30.8685 18.7069 31.0677 18.9142 31.2326H18.1365ZM25.2737 31.2326C25.3684 31.0615 25.4441 30.8766 25.4962 30.6791L29.2558 16.4194V30.0634C29.2558 30.4873 29.3658 30.8858 29.5583 31.2326H25.2737ZM30.276 7.65648L24.2899 30.361C24.2104 30.663 24.0179 30.916 23.748 31.0732C23.4782 31.2305 23.1635 31.2733 22.8613 31.1936L20.1203 30.471C19.8183 30.3914 19.5654 30.199 19.4081 29.9291C19.2508 29.6592 19.2082 29.3444 19.2878 29.0424L25.2738 6.33775C25.3534 6.03579 25.5458 5.78289 25.8157 5.62555C25.9969 5.51998 26.1983 5.466 26.4025 5.466C26.5026 5.466 26.6032 5.47897 26.7025 5.50513L29.4435 6.22775C30.0668 6.39222 30.4402 7.03313 30.276 7.65648ZM38.8031 28.0591H37.634C37.2894 28.0591 37.0102 28.3384 37.0102 28.6828C37.0102 29.0273 37.2894 29.3066 37.634 29.3066H38.8031V30.0634C38.8031 30.708 38.2786 31.2326 37.6338 31.2326H31.6724C31.0277 31.2326 30.5032 30.7081 30.5032 30.0634V29.3066H35.5546C35.8991 29.3066 36.1783 29.0273 36.1783 28.6828C36.1783 28.3384 35.8991 28.0591 35.5546 28.0591H30.5032V14.8984H38.803V28.0591H38.8031ZM38.8032 13.6508H30.5033V12.894C30.5033 12.2494 31.0277 11.7248 31.6725 11.7248H37.634C38.2787 11.7248 38.8032 12.2493 38.8032 12.894V13.6508H38.8032Z" fill="#B9AD99"/>
</svg>
