<svg width="40" height="42" viewBox="0 0 40 42" fill="none" xmlns="http://www.w3.org/2000/svg">
<path d="M29.167 21.0068C27.9733 21.0095 26.7892 21.2168 25.6659 21.6195V5.60181C24.5058 5.60181 23.5652 4.66115 23.5652 3.50113C23.5652 2.34111 24.5058 1.40045 25.6659 1.40045V1.18721e-07H3.95886C2.90743 -0.000273407 1.91152 0.472106 1.24658 1.28666C0.581089 2.10095 0.31741 3.17126 0.527752 4.20135H0.457729V37.8122C0.457729 38.199 0.771189 38.5124 1.15795 38.5124H21.3603C24.5802 42.1016 29.8317 43.0354 34.0915 40.7758C38.3517 38.5165 40.524 33.645 39.3583 28.9661C38.1925 24.2869 33.989 21.004 29.167 21.0068ZM2.46869 2.01807C2.86448 1.62338 3.40004 1.401 3.95886 1.40045H22.8825C21.9246 2.63706 21.9246 4.3652 22.8825 5.60181H3.95886C3.10929 5.6029 2.34287 5.09195 2.01683 4.30776C1.69051 3.52328 1.86912 2.61983 2.46869 2.01807ZM1.85818 37.112V6.28398C2.46048 6.74733 3.19873 6.99952 3.95886 7.00226H24.2654V22.2281C21.674 23.5886 19.7706 25.9715 19.0167 28.7995C18.2629 31.6275 18.7271 34.642 20.2971 37.112H1.85818ZM29.167 40.6131C24.1396 40.6131 20.064 36.5376 20.064 31.5102C20.064 26.4828 24.1396 22.4072 29.167 22.4072C34.1944 22.4072 38.2699 26.4828 38.2699 31.5102C38.2642 36.5351 34.1919 40.6073 29.167 40.6131Z" fill="#B9AD99"/>
<path d="M29.8672 30.8098V24.5078H28.4667V30.8098H22.1647V32.2103H28.4667V37.8121H29.8672V32.2103H36.1692V30.8098H29.8672Z" fill="#B9AD99"/>
</svg>
