<svg width="42" height="36" viewBox="0 0 42 36" fill="none" xmlns="http://www.w3.org/2000/svg">
<path d="M33.3867 0.773438H8.61328C3.8638 0.773438 0 4.63724 0 9.38672V22.6899C0 26.4797 2.48817 29.7805 6.0937 30.8369L10.2536 34.9971C10.4846 35.2278 10.7974 35.3576 11.1239 35.3576C11.4501 35.3576 11.7632 35.2278 11.9939 34.9971L15.8099 31.1808H33.3867C38.1362 31.1808 42 27.317 42 22.5675V9.38672C42 4.63724 38.1362 0.773438 33.3867 0.773438ZM39.5391 22.5675C39.5391 25.9599 36.7792 28.7198 33.3867 28.7198H15.3004C14.9742 28.7198 14.6612 28.8496 14.4305 29.0803L11.1239 32.3869L7.60231 28.8653C7.44434 28.7073 7.24631 28.5952 7.02937 28.5413C4.33965 27.8719 2.46094 25.4658 2.46094 22.6899V9.38672C2.46094 5.99428 5.22084 3.23438 8.61328 3.23438H33.3867C36.7792 3.23438 39.5391 5.99428 39.5391 9.38672V22.5675Z" fill="#B9AD99"/>
</svg>
