<svg width="53" height="44" viewBox="0 0 53 44" fill="none" xmlns="http://www.w3.org/2000/svg">
<path d="M12.452 26.244C10.868 26.244 9.836 24.816 9.836 22.572C9.836 20.364 10.868 19.008 12.452 19.008C14.024 19.008 15.068 20.364 15.068 22.572C15.068 24.816 14.024 26.244 12.452 26.244ZM15.14 29.208C15.668 29.208 16.136 29.112 16.4 29.016L16.184 28.152C15.956 28.224 15.656 28.284 15.26 28.284C14.312 28.284 13.496 27.888 13.1 27.108C14.96 26.784 16.208 25.104 16.208 22.572C16.208 19.752 14.66 18.036 12.452 18.036C10.244 18.036 8.696 19.752 8.696 22.572C8.696 25.152 9.992 26.856 11.912 27.12C12.404 28.332 13.52 29.208 15.14 29.208ZM20.5423 27.156C22.1383 27.156 23.5663 25.908 23.5663 23.748C23.5663 21.576 22.1383 20.316 20.5423 20.316C18.9463 20.316 17.5183 21.576 17.5183 23.748C17.5183 25.908 18.9463 27.156 20.5423 27.156ZM20.5423 26.244C19.4143 26.244 18.6583 25.248 18.6583 23.748C18.6583 22.248 19.4143 21.228 20.5423 21.228C21.6703 21.228 22.4383 22.248 22.4383 23.748C22.4383 25.248 21.6703 26.244 20.5423 26.244ZM27.1836 27.156C28.0836 27.156 28.7316 26.688 29.3436 25.98H29.3796L29.4636 27H30.3756V20.484H29.2836V25.104C28.6596 25.884 28.1916 26.208 27.5196 26.208C26.6556 26.208 26.2956 25.692 26.2956 24.48V20.484H25.2036V24.612C25.2036 26.268 25.8156 27.156 27.1836 27.156ZM34.6287 27.156C35.0247 27.156 35.4567 27.036 35.8287 26.916L35.6127 26.1C35.3967 26.184 35.0967 26.268 34.8687 26.268C34.1127 26.268 33.8607 25.812 33.8607 25.008V21.372H35.6247V20.484H33.8607V18.648H32.9487L32.8167 20.484L31.7967 20.544V21.372H32.7687V24.984C32.7687 26.28 33.2367 27.156 34.6287 27.156ZM39.5523 27.156C40.4403 27.156 41.1363 26.856 41.7123 26.484L41.3163 25.764C40.8363 26.088 40.3203 26.28 39.6843 26.28C38.4483 26.28 37.5963 25.392 37.5243 24H41.9163C41.9403 23.844 41.9643 23.616 41.9643 23.376C41.9643 21.516 41.0283 20.316 39.3723 20.316C37.8603 20.316 36.4323 21.636 36.4323 23.748C36.4323 25.896 37.8243 27.156 39.5523 27.156ZM37.5123 23.208C37.6443 21.936 38.4603 21.192 39.3843 21.192C40.4043 21.192 41.0043 21.9 41.0043 23.208H37.5123Z" fill="#B9AD99"/>
<path d="M1.596 8.24C2.016 8.24 2.304 7.976 2.304 7.508C2.304 7.076 1.968 6.836 1.596 6.836C1.56 6.836 1.524 6.836 1.488 6.848C1.488 6.092 1.824 5.624 2.496 5.18L2.184 4.664C1.26 5.204 0.756 5.972 0.756 7.04C0.756 7.808 1.068 8.24 1.596 8.24ZM3.948 8.24C4.368 8.24 4.668 7.976 4.668 7.508C4.668 7.076 4.32 6.836 3.948 6.836C3.912 6.836 3.876 6.836 3.84 6.848C3.84 6.092 4.188 5.624 4.848 5.18L4.536 4.664C3.624 5.204 3.12 5.972 3.12 7.04C3.12 7.808 3.432 8.24 3.948 8.24ZM47.2171 42.24C47.6371 42.24 47.9251 41.976 47.9251 41.508C47.9251 41.076 47.5891 40.836 47.2171 40.836C47.1811 40.836 47.1451 40.836 47.1091 40.848C47.1091 40.092 47.4451 39.624 48.1171 39.18L47.8051 38.664C46.8811 39.204 46.3771 39.972 46.3771 41.04C46.3771 41.808 46.6891 42.24 47.2171 42.24ZM49.5691 42.24C49.9891 42.24 50.2891 41.976 50.2891 41.508C50.2891 41.076 49.9411 40.836 49.5691 40.836C49.5331 40.836 49.4971 40.836 49.4611 40.848C49.4611 40.092 49.8091 39.624 50.4691 39.18L50.1571 38.664C49.2451 39.204 48.7411 39.972 48.7411 41.04C48.7411 41.808 49.0531 42.24 49.5691 42.24Z" fill="#B9AD99"/>
</svg>
