<svg width="165" height="28" viewBox="0 0 165 28" fill="none" xmlns="http://www.w3.org/2000/svg">
<path d="M14.43 6.58V21.19C14.43 22.05 14.33 22.88 14.13 23.68C13.93 24.5 13.58 25.22 13.08 25.84C12.6 26.46 11.93 26.95 11.07 27.31C10.21 27.69 9.12 27.88 7.8 27.88C6.98 27.88 6.21 27.79 5.49 27.61C4.77 27.45 4.14 27.18 3.6 26.8C3.06 26.44 2.62 25.95 2.28 25.33C1.96 24.73 1.78 23.98 1.74 23.08H2.88C2.94 23.76 3.11 24.34 3.39 24.82C3.67 25.3 4.03 25.69 4.47 25.99C4.93 26.31 5.44 26.54 6 26.68C6.56 26.82 7.16 26.89 7.8 26.89C8.86 26.89 9.74 26.73 10.44 26.41C11.16 26.09 11.73 25.67 12.15 25.15C12.57 24.65 12.86 24.07 13.02 23.41C13.2 22.77 13.29 22.12 13.29 21.46V17.92H13.23C12.69 19.06 11.95 19.93 11.01 20.53C10.09 21.13 8.97 21.43 7.65 21.43C6.51 21.43 5.52 21.24 4.68 20.86C3.86 20.46 3.17 19.92 2.61 19.24C2.07 18.54 1.66 17.73 1.38 16.81C1.12 15.89 0.99 14.89 0.99 13.81C0.99 12.79 1.13 11.82 1.41 10.9C1.71 9.98 2.14 9.18 2.7 8.5C3.26 7.8 3.95 7.25 4.77 6.85C5.61 6.43 6.57 6.22 7.65 6.22C8.87 6.22 9.99 6.53 11.01 7.15C12.05 7.77 12.79 8.65 13.23 9.79H13.29V6.58H14.43ZM7.65 7.21C6.71 7.21 5.89 7.4 5.19 7.78C4.51 8.16 3.94 8.66 3.48 9.28C3.04 9.9 2.7 10.61 2.46 11.41C2.24 12.19 2.13 12.99 2.13 13.81C2.13 14.71 2.24 15.57 2.46 16.39C2.7 17.19 3.05 17.89 3.51 18.49C3.99 19.09 4.57 19.57 5.25 19.93C5.95 20.27 6.75 20.44 7.65 20.44C8.59 20.44 9.41 20.26 10.11 19.9C10.81 19.54 11.39 19.05 11.85 18.43C12.33 17.81 12.68 17.11 12.9 16.33C13.14 15.53 13.26 14.69 13.26 13.81C13.26 12.95 13.14 12.12 12.9 11.32C12.68 10.52 12.33 9.82 11.85 9.22C11.39 8.6 10.81 8.11 10.11 7.75C9.41 7.39 8.59 7.21 7.65 7.21ZM17.0733 14.29C17.0733 13.19 17.2233 12.16 17.5233 11.2C17.8433 10.22 18.3033 9.36 18.9033 8.62C19.5033 7.88 20.2433 7.3 21.1233 6.88C22.0033 6.44 23.0133 6.22 24.1533 6.22C25.2933 6.22 26.3033 6.44 27.1833 6.88C28.0633 7.3 28.8033 7.88 29.4033 8.62C30.0033 9.36 30.4533 10.22 30.7533 11.2C31.0733 12.16 31.2333 13.19 31.2333 14.29C31.2333 15.39 31.0733 16.43 30.7533 17.41C30.4533 18.39 30.0033 19.25 29.4033 19.99C28.8033 20.71 28.0633 21.29 27.1833 21.73C26.3033 22.15 25.2933 22.36 24.1533 22.36C23.0133 22.36 22.0033 22.15 21.1233 21.73C20.2433 21.29 19.5033 20.71 18.9033 19.99C18.3033 19.25 17.8433 18.39 17.5233 17.41C17.2233 16.43 17.0733 15.39 17.0733 14.29ZM18.2133 14.29C18.2133 15.21 18.3433 16.1 18.6033 16.96C18.8633 17.8 19.2433 18.55 19.7433 19.21C20.2433 19.87 20.8633 20.4 21.6033 20.8C22.3433 21.18 23.1933 21.37 24.1533 21.37C25.1133 21.37 25.9633 21.18 26.7033 20.8C27.4433 20.4 28.0633 19.87 28.5633 19.21C29.0633 18.55 29.4433 17.8 29.7033 16.96C29.9633 16.1 30.0933 15.21 30.0933 14.29C30.0933 13.37 29.9633 12.49 29.7033 11.65C29.4433 10.79 29.0633 10.03 28.5633 9.37C28.0633 8.71 27.4433 8.19 26.7033 7.81C25.9633 7.41 25.1133 7.21 24.1533 7.21C23.1933 7.21 22.3433 7.41 21.6033 7.81C20.8633 8.19 20.2433 8.71 19.7433 9.37C19.2433 10.03 18.8633 10.79 18.6033 11.65C18.3433 12.49 18.2133 13.37 18.2133 14.29ZM33.1866 14.29C33.1866 13.19 33.3366 12.16 33.6366 11.2C33.9566 10.22 34.4166 9.36 35.0166 8.62C35.6166 7.88 36.3566 7.3 37.2366 6.88C38.1166 6.44 39.1266 6.22 40.2666 6.22C41.4066 6.22 42.4166 6.44 43.2966 6.88C44.1766 7.3 44.9166 7.88 45.5166 8.62C46.1166 9.36 46.5666 10.22 46.8666 11.2C47.1866 12.16 47.3466 13.19 47.3466 14.29C47.3466 15.39 47.1866 16.43 46.8666 17.41C46.5666 18.39 46.1166 19.25 45.5166 19.99C44.9166 20.71 44.1766 21.29 43.2966 21.73C42.4166 22.15 41.4066 22.36 40.2666 22.36C39.1266 22.36 38.1166 22.15 37.2366 21.73C36.3566 21.29 35.6166 20.71 35.0166 19.99C34.4166 19.25 33.9566 18.39 33.6366 17.41C33.3366 16.43 33.1866 15.39 33.1866 14.29ZM34.3266 14.29C34.3266 15.21 34.4566 16.1 34.7166 16.96C34.9766 17.8 35.3566 18.55 35.8566 19.21C36.3566 19.87 36.9766 20.4 37.7166 20.8C38.4566 21.18 39.3066 21.37 40.2666 21.37C41.2266 21.37 42.0766 21.18 42.8166 20.8C43.5566 20.4 44.1766 19.87 44.6766 19.21C45.1766 18.55 45.5566 17.8 45.8166 16.96C46.0766 16.1 46.2066 15.21 46.2066 14.29C46.2066 13.37 46.0766 12.49 45.8166 11.65C45.5566 10.79 45.1766 10.03 44.6766 9.37C44.1766 8.71 43.5566 8.19 42.8166 7.81C42.0766 7.41 41.2266 7.21 40.2666 7.21C39.3066 7.21 38.4566 7.41 37.7166 7.81C36.9766 8.19 36.3566 8.71 35.8566 9.37C35.3566 10.03 34.9766 10.79 34.7166 11.65C34.4566 12.49 34.3266 13.37 34.3266 14.29ZM61.9298 18.7H61.8698C61.2298 19.92 60.4298 20.84 59.4698 21.46C58.5098 22.06 57.3398 22.36 55.9598 22.36C54.7998 22.36 53.7998 22.14 52.9598 21.7C52.1198 21.26 51.4298 20.67 50.8898 19.93C50.3498 19.19 49.9498 18.34 49.6898 17.38C49.4298 16.4 49.2998 15.38 49.2998 14.32C49.2998 13.18 49.4398 12.12 49.7198 11.14C49.9998 10.14 50.4198 9.28 50.9798 8.56C51.5598 7.84 52.2798 7.27 53.1398 6.85C53.9998 6.43 55.0098 6.22 56.1698 6.22C56.7898 6.22 57.3998 6.31 57.9998 6.49C58.5998 6.65 59.1498 6.89 59.6498 7.21C60.1698 7.53 60.6198 7.93 60.9998 8.41C61.3798 8.89 61.6698 9.43 61.8698 10.03H61.9298V0.579999H63.0698V22H61.9298V18.7ZM56.1998 21.37C57.1798 21.37 58.0198 21.17 58.7198 20.77C59.4398 20.37 60.0298 19.84 60.4898 19.18C60.9698 18.52 61.3198 17.77 61.5398 16.93C61.7798 16.07 61.8998 15.2 61.8998 14.32C61.8998 13.42 61.7798 12.55 61.5398 11.71C61.3198 10.85 60.9798 10.09 60.5198 9.43C60.0598 8.75 59.4598 8.21 58.7198 7.81C57.9998 7.41 57.1498 7.21 56.1698 7.21C55.1498 7.21 54.2798 7.41 53.5598 7.81C52.8398 8.19 52.2398 8.71 51.7598 9.37C51.2998 10.03 50.9598 10.79 50.7398 11.65C50.5398 12.51 50.4398 13.4 50.4398 14.32C50.4398 15.22 50.5498 16.1 50.7698 16.96C51.0098 17.8 51.3598 18.55 51.8198 19.21C52.2998 19.87 52.8998 20.4 53.6198 20.8C54.3398 21.18 55.1998 21.37 56.1998 21.37ZM66.8098 6.52V22H68.6998V13.75C68.6998 12.93 68.8398 12.18 69.1198 11.5C69.3998 10.8 69.7898 10.2 70.2898 9.7C70.8098 9.2 71.4198 8.82 72.1198 8.56C72.8198 8.28 73.5998 8.16 74.4598 8.2V6.31C73.0598 6.25 71.8498 6.56 70.8298 7.24C69.8298 7.92 69.0898 8.89 68.6098 10.15H68.5498V6.52H66.8098Z" fill="#6A5949"/>
<path d="M87.4027 13.18H77.3827C77.4627 12.48 77.6227 11.8 77.8627 11.14C78.1227 10.46 78.4627 9.87 78.8827 9.37C79.3027 8.85 79.8127 8.44 80.4127 8.14C81.0127 7.82 81.7027 7.66 82.4827 7.66C83.2427 7.66 83.9227 7.82 84.5227 8.14C85.1227 8.44 85.6327 8.85 86.0527 9.37C86.4727 9.87 86.7927 10.45 87.0127 11.11C87.2527 11.77 87.3827 12.46 87.4027 13.18ZM77.3827 14.77H89.2927C89.3327 13.69 89.2327 12.63 88.9927 11.59C88.7527 10.53 88.3527 9.6 87.7927 8.8C87.2527 7.98 86.5427 7.32 85.6627 6.82C84.7827 6.32 83.7227 6.07 82.4827 6.07C81.2627 6.07 80.2027 6.31 79.3027 6.79C78.4227 7.25 77.7027 7.87 77.1427 8.65C76.5827 9.41 76.1627 10.28 75.8827 11.26C75.6227 12.24 75.4927 13.24 75.4927 14.26C75.4927 15.36 75.6227 16.41 75.8827 17.41C76.1627 18.39 76.5827 19.26 77.1427 20.02C77.7027 20.76 78.4227 21.35 79.3027 21.79C80.2027 22.21 81.2627 22.42 82.4827 22.42C84.4427 22.42 85.9527 21.94 87.0127 20.98C88.0927 20.02 88.8327 18.66 89.2327 16.9H87.3427C87.0427 18.1 86.5027 19.06 85.7227 19.78C84.9427 20.5 83.8627 20.86 82.4827 20.86C81.5827 20.86 80.8127 20.67 80.1727 20.29C79.5327 19.91 79.0027 19.43 78.5827 18.85C78.1627 18.27 77.8527 17.62 77.6527 16.9C77.4727 16.16 77.3827 15.45 77.3827 14.77ZM91.6493 11.26H93.5393C93.5793 10 93.9793 9.09 94.7393 8.53C95.4993 7.95 96.4793 7.66 97.6793 7.66C98.2393 7.66 98.7593 7.71 99.2393 7.81C99.7393 7.89 100.169 8.05 100.529 8.29C100.909 8.53 101.199 8.86 101.399 9.28C101.619 9.68 101.729 10.2 101.729 10.84C101.729 11.26 101.669 11.6 101.549 11.86C101.449 12.12 101.299 12.33 101.099 12.49C100.899 12.63 100.649 12.73 100.349 12.79C100.049 12.85 99.6993 12.9 99.2993 12.94C98.2793 13.06 97.2693 13.19 96.2693 13.33C95.2893 13.45 94.3993 13.67 93.5993 13.99C92.8193 14.31 92.1893 14.78 91.7093 15.4C91.2293 16 90.9893 16.84 90.9893 17.92C90.9893 18.7 91.1193 19.38 91.3793 19.96C91.6593 20.52 92.0293 20.99 92.4893 21.37C92.9693 21.73 93.5193 21.99 94.1393 22.15C94.7793 22.33 95.4593 22.42 96.1793 22.42C96.9393 22.42 97.5893 22.35 98.1293 22.21C98.6893 22.07 99.1793 21.87 99.5993 21.61C100.039 21.35 100.429 21.03 100.769 20.65C101.129 20.25 101.479 19.8 101.819 19.3H101.879C101.879 19.7 101.899 20.07 101.939 20.41C101.999 20.73 102.109 21.01 102.269 21.25C102.429 21.49 102.649 21.68 102.929 21.82C103.229 21.94 103.619 22 104.099 22C104.359 22 104.569 21.99 104.729 21.97C104.909 21.95 105.109 21.92 105.329 21.88V20.29C105.149 20.37 104.949 20.41 104.729 20.41C103.989 20.41 103.619 20.03 103.619 19.27V11.05C103.619 10.01 103.449 9.17 103.109 8.53C102.769 7.87 102.329 7.36 101.789 7C101.249 6.64 100.639 6.4 99.9593 6.28C99.2793 6.14 98.5993 6.07 97.9193 6.07C97.0193 6.07 96.1993 6.17 95.4593 6.37C94.7193 6.57 94.0693 6.88 93.5093 7.3C92.9693 7.72 92.5393 8.26 92.2193 8.92C91.8993 9.58 91.7093 10.36 91.6493 11.26ZM101.729 13.54V16C101.729 16.76 101.579 17.44 101.279 18.04C100.999 18.64 100.609 19.15 100.109 19.57C99.6293 19.99 99.0593 20.31 98.3993 20.53C97.7393 20.75 97.0493 20.86 96.3293 20.86C95.8893 20.86 95.4593 20.79 95.0393 20.65C94.6193 20.51 94.2493 20.31 93.9293 20.05C93.6093 19.77 93.3493 19.45 93.1493 19.09C92.9693 18.71 92.8793 18.28 92.8793 17.8C92.8793 17.04 93.0993 16.46 93.5393 16.06C93.9993 15.64 94.5793 15.32 95.2793 15.1C95.9793 14.88 96.7493 14.72 97.5893 14.62C98.4493 14.5 99.2793 14.37 100.079 14.23C100.339 14.19 100.639 14.12 100.979 14.02C101.319 13.92 101.549 13.76 101.669 13.54H101.729ZM121.006 22V0.579999H119.116V9.46H119.056C118.856 8.9 118.566 8.41 118.186 7.99C117.826 7.57 117.406 7.22 116.926 6.94C116.446 6.64 115.926 6.42 115.366 6.28C114.826 6.14 114.266 6.07 113.686 6.07C112.506 6.07 111.476 6.29 110.596 6.73C109.736 7.17 109.016 7.77 108.436 8.53C107.856 9.27 107.426 10.14 107.146 11.14C106.866 12.12 106.726 13.16 106.726 14.26C106.726 15.36 106.866 16.41 107.146 17.41C107.426 18.39 107.856 19.26 108.436 20.02C109.016 20.76 109.736 21.35 110.596 21.79C111.476 22.21 112.506 22.42 113.686 22.42C114.246 22.42 114.806 22.34 115.366 22.18C115.946 22.02 116.486 21.8 116.986 21.52C117.486 21.22 117.926 20.86 118.306 20.44C118.706 20.02 119.006 19.56 119.206 19.06H119.266V22H121.006ZM108.616 14.26C108.616 13.46 108.706 12.67 108.886 11.89C109.086 11.09 109.386 10.38 109.786 9.76C110.206 9.14 110.736 8.64 111.376 8.26C112.016 7.86 112.786 7.66 113.686 7.66C114.686 7.66 115.526 7.86 116.206 8.26C116.906 8.64 117.466 9.14 117.886 9.76C118.326 10.38 118.636 11.09 118.816 11.89C119.016 12.67 119.116 13.46 119.116 14.26C119.116 15.06 119.016 15.86 118.816 16.66C118.636 17.44 118.326 18.14 117.886 18.76C117.466 19.38 116.906 19.89 116.206 20.29C115.526 20.67 114.686 20.86 113.686 20.86C112.786 20.86 112.016 20.67 111.376 20.29C110.736 19.89 110.206 19.38 109.786 18.76C109.386 18.14 109.086 17.44 108.886 16.66C108.706 15.86 108.616 15.06 108.616 14.26ZM133.883 11.05H135.773C135.733 10.21 135.563 9.48 135.263 8.86C134.963 8.24 134.553 7.72 134.033 7.3C133.533 6.88 132.943 6.57 132.263 6.37C131.603 6.17 130.883 6.07 130.103 6.07C129.423 6.07 128.733 6.15 128.033 6.31C127.353 6.47 126.733 6.72 126.173 7.06C125.613 7.4 125.153 7.85 124.792 8.41C124.453 8.97 124.283 9.64 124.283 10.42C124.283 11.08 124.393 11.64 124.613 12.1C124.833 12.54 125.133 12.92 125.513 13.24C125.913 13.54 126.373 13.8 126.893 14.02C127.413 14.22 127.983 14.4 128.603 14.56L131.033 15.1C131.453 15.2 131.863 15.32 132.263 15.46C132.683 15.6 133.053 15.78 133.373 16C133.693 16.2 133.943 16.46 134.123 16.78C134.323 17.08 134.423 17.46 134.423 17.92C134.423 18.46 134.283 18.92 134.003 19.3C133.743 19.66 133.403 19.96 132.983 20.2C132.563 20.44 132.103 20.61 131.603 20.71C131.123 20.81 130.653 20.86 130.193 20.86C128.933 20.86 127.873 20.54 127.013 19.9C126.173 19.24 125.713 18.27 125.633 16.99H123.743C123.903 18.89 124.543 20.27 125.663 21.13C126.803 21.99 128.283 22.42 130.103 22.42C130.823 22.42 131.553 22.34 132.293 22.18C133.033 22.02 133.693 21.76 134.273 21.4C134.873 21.02 135.363 20.54 135.743 19.96C136.123 19.36 136.313 18.64 136.313 17.8C136.313 17.12 136.183 16.53 135.923 16.03C135.663 15.53 135.323 15.11 134.903 14.77C134.503 14.43 134.033 14.16 133.493 13.96C132.973 13.74 132.443 13.59 131.903 13.51L129.383 12.94C129.063 12.86 128.713 12.76 128.333 12.64C127.953 12.5 127.603 12.33 127.283 12.13C126.963 11.93 126.693 11.69 126.473 11.41C126.273 11.11 126.173 10.75 126.173 10.33C126.173 9.83 126.283 9.41 126.503 9.07C126.723 8.73 127.013 8.46 127.373 8.26C127.733 8.04 128.123 7.89 128.543 7.81C128.983 7.71 129.413 7.66 129.833 7.66C130.373 7.66 130.883 7.73 131.363 7.87C131.843 7.99 132.263 8.19 132.623 8.47C133.003 8.75 133.303 9.11 133.523 9.55C133.743 9.97 133.863 10.47 133.883 11.05Z" fill="#462F20"/>
<path d="M139.146 0.579999H140.466V12.91L153.936 0.579999H155.646L145.866 9.49L156.246 22H154.596L144.906 10.39L140.466 14.44V22H139.146V0.579999ZM158.474 10H158.564C158.704 9.5 158.954 9.03 159.314 8.59C159.694 8.15 160.144 7.77 160.664 7.45C161.204 7.13 161.794 6.89 162.434 6.73C163.094 6.55 163.774 6.47 164.474 6.49V7.63C163.874 7.55 163.184 7.61 162.404 7.81C161.644 8.01 160.914 8.45 160.214 9.13C159.934 9.43 159.684 9.72 159.464 10C159.264 10.28 159.094 10.59 158.954 10.93C158.814 11.27 158.704 11.65 158.624 12.07C158.544 12.49 158.494 12.99 158.474 13.57V22H157.334V6.58H158.474V10Z" fill="black"/>
</svg>
