<?xml version="1.0" encoding="iso-8859-1"?>
<!-- Generator: Adobe Illustrator 19.0.0, SVG Export Plug-In . SVG Version: 6.00 Build 0)  -->
<svg version="1.1" id="Capa_1" xmlns="http://www.w3.org/2000/svg" xmlns:xlink="http://www.w3.org/1999/xlink" x="0px" y="0px"
	 viewBox="0 0 480 480" style="enable-background:new 0 0 480 480;" xml:space="preserve">
<g>
	<path style="fill:#C49A6C;" d="M456,283.141H24c-8.837,0-16,7.163-16,16v16c0,8.837,7.163,16,16,16h432c8.837,0,16-7.163,16-16v-16
		C472,290.304,464.837,283.141,456,283.141z"/>
	<path style="fill:#C49A6C;" d="M56,331.141h32v64H56V331.141z"/>
	<path style="fill:#C49A6C;" d="M392,331.141h32v64h-32V331.141z"/>
</g>
<path style="fill:#BDDBFF;" d="M304,91.141h-64v192h64V91.141z"/>
<path style="fill:#DCF4CA;" d="M368,283.141v-192h-64v192H368z"/>
<path style="fill:#FFE477;" d="M432,283.141v-160h-64v160H432z"/>
<path style="fill:#D8D7DA;" d="M176.576,84.861l-96,166.28l55.424,32l96-166.28L176.576,84.861z M113.36,242.341l13.856,8
	L113.36,242.341z M199.2,125.645l-13.856-8L199.2,125.645z"/>
<g>
	<path style="fill:#231F20;" d="M456,275.141h-16v-152c0-4.418-3.582-8-8-8h-56v-24c0-4.418-3.582-8-8-8H240c-4.418,0-8,3.582-8,8
		v16.48l-51.424-29.688c-3.826-2.209-8.719-0.898-10.928,2.928l-96,166.28c-2.209,3.826-0.898,8.719,2.928,10.928l29.568,17.072H24
		c-13.255,0-24,10.745-24,24v16c0,13.255,10.745,24,24,24h24v56c0,4.418,3.582,8,8,8h32c4.418,0,8-3.582,8-8v-56h288v56
		c0,4.418,3.582,8,8,8h32c4.418,0,8-3.582,8-8v-56h24c13.255,0,24-10.745,24-24v-16C480,285.886,469.255,275.141,456,275.141z
		 M424,131.141v144h-48v-144H424z M360,275.141h-48v-176h48V275.141z M248,99.141h48v176h-48V99.141z M179.504,95.797l41.6,24
		l-88,152.416l-41.6-24L179.504,95.797z M232,132.869v142.272h-82.144L232,132.869z M80,387.141H64v-48h16V387.141z M416,387.141
		h-16v-48h16V387.141z M464,315.141c0,4.418-3.582,8-8,8H24c-4.418,0-8-3.582-8-8v-16c0-4.418,3.582-8,8-8h432c4.418,0,8,3.582,8,8
		V315.141z"/>
	<path style="fill:#231F20;" d="M280,107.141h-16c-4.418,0-8,3.582-8,8s3.582,8,8,8h16c4.418,0,8-3.582,8-8
		S284.418,107.141,280,107.141z"/>
	<path style="fill:#231F20;" d="M328,123.141h16c4.418,0,8-3.582,8-8s-3.582-8-8-8h-16c-4.418,0-8,3.582-8,8
		S323.582,123.141,328,123.141z"/>
	<path style="fill:#231F20;" d="M392,155.141h16c4.418,0,8-3.582,8-8s-3.582-8-8-8h-16c-4.418,0-8,3.582-8,8
		S387.582,155.141,392,155.141z"/>
	<path style="fill:#231F20;" d="M280,251.141h-16c-4.418,0-8,3.582-8,8c0,4.418,3.582,8,8,8h16c4.418,0,8-3.582,8-8
		C288,254.722,284.418,251.141,280,251.141z"/>
	<path style="fill:#231F20;" d="M181.36,124.581l13.856,8c3.828,2.209,8.723,0.896,10.932-2.932
		c2.209-3.828,0.896-8.723-2.932-10.932l-13.856-8c-3.828-2.209-8.723-0.896-10.932,2.932
		C176.219,117.477,177.532,122.371,181.36,124.581z"/>
	<path style="fill:#231F20;" d="M131.2,243.429l-13.856-8c-3.841-2.183-8.725-0.84-10.908,3.002
		c-2.163,3.805-0.867,8.641,2.908,10.854l13.856,8c3.811,2.235,8.713,0.957,10.948-2.854c2.235-3.811,0.957-8.713-2.854-10.948
		C131.262,243.464,131.231,243.446,131.2,243.429z"/>
	<path style="fill:#231F20;" d="M328,267.141h16c4.418,0,8-3.582,8-8c0-4.418-3.582-8-8-8h-16c-4.418,0-8,3.582-8,8
		C320,263.559,323.582,267.141,328,267.141z"/>
	<path style="fill:#231F20;" d="M392,267.141h16c4.418,0,8-3.582,8-8c0-4.418-3.582-8-8-8h-16c-4.418,0-8,3.582-8,8
		C384,263.559,387.582,267.141,392,267.141z"/>
</g>
<g>
</g>
<g>
</g>
<g>
</g>
<g>
</g>
<g>
</g>
<g>
</g>
<g>
</g>
<g>
</g>
<g>
</g>
<g>
</g>
<g>
</g>
<g>
</g>
<g>
</g>
<g>
</g>
<g>
</g>
</svg>
