<svg width="200" height="146" viewBox="0 0 200 146" fill="none" xmlns="http://www.w3.org/2000/svg">
<path d="M190.323 19.8025H9.67742C4.34113 19.8025 0 24.1436 0 29.4799V135.932C0 141.268 4.34113 145.609 9.67742 145.609H190.323C195.659 145.609 200 141.268 200 135.932V29.4799C200 24.1436 195.659 19.8025 190.323 19.8025Z" fill="#FF4F19"/>
<path d="M109.677 129.48H90.3225V145.609H109.677V129.48Z" fill="#E3001E"/>
<path d="M187.185 119.802V129.48C187.185 131.261 185.741 132.706 183.959 132.706H16.2173C14.4358 132.706 12.9915 131.261 12.9915 129.48V119.802L32.258 110.125L109.677 113.351L174.193 110.125L187.185 119.802Z" fill="#E6BE8A"/>
<path d="M17.5173 124.256C44.0249 113.313 74.0028 113.979 100.088 126.254V10.1249C73.1427 -2.55451 42.0443 -2.84685 14.9072 9.24751C13.7394 9.76807 12.9915 10.9499 12.9915 12.2286V121.307C12.9915 123.637 15.3636 125.145 17.5173 124.256Z" fill="#FFEBB7"/>
<path d="M100.088 126.254C126.174 113.979 156.152 113.313 182.659 124.256C184.813 125.145 187.185 123.637 187.185 121.307V12.2286C187.185 10.9499 186.437 9.76807 185.269 9.24751C158.132 -2.84685 127.034 -2.55451 100.088 10.1249V126.254V126.254Z" fill="#FFD788"/>
<path d="M112.992 105.187C111.618 105.187 110.345 104.305 109.914 102.927C109.382 101.227 110.326 99.416 112.024 98.8821C115.288 97.8567 118.646 96.9809 122.007 96.2769C123.746 95.9116 125.46 97.0249 125.825 98.7721C126.191 100.516 125.076 102.225 123.33 102.59C120.174 103.252 117.021 104.076 113.959 105.038C113.637 105.138 113.31 105.187 112.992 105.187Z" fill="#868491"/>
<path d="M174.282 105.187C173.964 105.187 173.636 105.138 173.315 105.037C161.143 101.215 148.526 99.783 135.828 100.794C134.026 100.923 132.498 99.6084 132.356 97.833C132.217 96.0564 133.541 94.5031 135.317 94.3616C148.869 93.2967 162.29 94.812 175.249 98.8822C176.947 99.416 177.892 101.227 177.36 102.927C176.928 104.305 175.655 105.187 174.282 105.187Z" fill="#868491"/>
<path d="M174.282 92.2458C173.964 92.2458 173.636 92.197 173.315 92.0962C153.897 85.9975 133.377 85.9975 113.959 92.0962C112.252 92.6301 110.443 91.6837 109.914 89.9858C109.382 88.2862 110.327 86.4749 112.025 85.941C132.709 79.4454 154.565 79.4454 175.249 85.941C176.947 86.4749 177.892 88.2862 177.36 89.9858C176.928 91.364 175.655 92.2458 174.282 92.2458Z" fill="#868491"/>
<path d="M112.992 79.3806C111.618 79.3806 110.345 78.4983 109.914 77.1205C109.382 75.4209 110.326 73.6096 112.024 73.0757C123.897 69.3491 136.218 67.7628 148.63 68.3459C150.406 68.431 151.783 69.9414 151.698 71.7213C151.616 73.5043 150.129 74.8652 148.321 74.791C136.674 74.2414 125.104 75.7314 113.958 79.2314C113.637 79.3318 113.31 79.3806 112.992 79.3806Z" fill="#868491"/>
<path d="M174.282 79.3806C173.964 79.3806 173.636 79.3318 173.315 79.231C169.239 77.9504 165.033 76.9234 160.815 76.1802C159.06 75.8697 157.888 74.1971 158.2 72.4423C158.509 70.6891 160.185 69.5157 161.937 69.8262C166.429 70.6185 170.905 71.7117 175.25 73.0758C176.948 73.6096 177.893 75.4209 177.36 77.1205C176.928 78.4988 175.655 79.3806 174.282 79.3806Z" fill="#868491"/>
<path d="M174.282 66.4394C173.964 66.4394 173.636 66.3906 173.315 66.2898C153.897 60.1911 133.377 60.1911 113.959 66.2898C112.252 66.8205 110.443 65.8757 109.914 64.1794C109.382 62.4798 110.327 60.6685 112.025 60.1346C132.709 53.6391 154.565 53.6391 175.249 60.1346C176.947 60.6685 177.892 62.4798 177.36 64.1794C176.928 65.5576 175.655 66.4394 174.282 66.4394Z" fill="#868491"/>
<path d="M112.992 53.5366C111.618 53.5366 110.345 52.6543 109.914 51.2765C109.382 49.5769 110.326 47.7656 112.024 47.2317C118.514 45.1934 125.23 43.7793 131.993 43.0293C133.789 42.8136 135.361 44.1116 135.556 45.8785C135.751 47.6491 134.475 49.2446 132.705 49.4398C126.358 50.1454 120.048 51.4733 113.959 53.387C113.637 53.4874 113.31 53.5366 112.992 53.5366Z" fill="#868491"/>
<path d="M174.282 53.5367C173.964 53.5367 173.636 53.4879 173.315 53.3871C164.208 50.525 154.751 48.9972 145.202 48.8476C143.419 48.8194 141.999 47.3528 142.027 45.5714C142.055 43.7915 143.612 42.2919 145.303 42.396C155.472 42.5565 165.55 44.1839 175.249 47.2315C176.947 47.7653 177.892 49.5766 177.36 51.2762C176.925 52.6544 175.655 53.5367 174.282 53.5367Z" fill="#868491"/>
<path d="M112.992 40.671C111.618 40.671 110.345 39.7887 109.914 38.4109C109.382 36.7113 110.326 34.9 112.024 34.3661C126.08 29.9512 140.628 28.5335 155.283 30.1637C157.053 30.3589 158.329 31.9545 158.134 33.725C157.938 35.494 156.376 36.8044 154.571 36.5742C140.823 35.0496 127.154 36.3742 113.958 40.5214C113.637 40.6222 113.31 40.671 112.992 40.671Z" fill="#868491"/>
<path d="M174.282 40.6708C173.964 40.6708 173.636 40.622 173.315 40.5212C171.267 39.8769 169.166 39.2926 167.065 38.7809C165.336 38.3587 164.274 36.6136 164.696 34.8825C165.118 33.1515 166.851 32.093 168.596 32.5119C170.83 33.0571 173.066 33.6805 175.249 34.366C176.947 34.8999 177.892 36.7111 177.36 38.4107C176.928 39.789 175.655 40.6708 174.282 40.6708Z" fill="#868491"/>
<path d="M112.992 27.7302C111.618 27.7302 110.345 26.8468 109.914 25.4685C109.381 23.7673 110.326 21.9577 112.027 21.4254C114.245 20.729 116.482 20.1069 118.677 19.573C120.398 19.1492 122.152 20.2141 122.574 21.9452C122.996 23.6762 121.932 25.4214 120.202 25.8419C118.142 26.3427 116.041 26.927 113.955 27.5806C113.634 27.681 113.31 27.7302 112.992 27.7302Z" fill="#868491"/>
<path d="M174.282 27.7303C173.964 27.7303 173.636 27.6815 173.315 27.5807C160.116 23.4335 146.453 22.1106 132.702 23.6335C130.919 23.8509 129.335 22.5513 129.14 20.7843C128.944 19.0138 130.22 17.4182 131.99 17.2231C146.639 15.5928 161.19 17.0106 175.249 21.4255C176.947 21.9593 177.892 23.7706 177.359 25.4702C176.928 26.8481 175.655 27.7303 174.282 27.7303Z" fill="#868491"/>
<path d="M25.8947 105.187C24.5213 105.187 23.2487 104.305 22.8169 102.927C22.2846 101.227 23.2294 99.416 24.9273 98.8821C28.191 97.8567 31.5491 96.9809 34.9104 96.2769C36.6523 95.9116 38.3632 97.0249 38.7285 98.7721C39.0939 100.516 37.9789 102.225 36.2334 102.59C33.0769 103.252 29.9237 104.076 26.8616 105.038C26.5402 105.138 26.2128 105.187 25.8947 105.187Z" fill="#B4B6BC"/>
<path d="M87.1851 105.187C86.8669 105.187 86.5391 105.138 86.2181 105.037C74.0488 101.215 61.429 99.783 48.7306 100.794C46.9036 100.923 45.4008 99.6084 45.2592 97.833C45.1205 96.0564 46.4439 94.5031 48.2205 94.3616C61.7726 93.2967 75.1895 94.812 88.1524 98.8822C89.8504 99.416 90.7955 101.227 90.2629 102.927C89.831 104.305 88.5584 105.187 87.1851 105.187Z" fill="#B4B6BC"/>
<path d="M87.1851 92.2458C86.8669 92.2458 86.5391 92.197 86.2181 92.0962C66.8004 85.9975 46.2798 85.9975 26.8621 92.0962C25.1484 92.6301 23.3464 91.6837 22.8173 89.9858C22.2851 88.2862 23.2298 86.4749 24.9278 85.941C45.6121 79.4454 67.4681 79.4454 88.1524 85.941C89.8504 86.4749 90.7956 88.2862 90.2629 89.9858C89.831 91.364 88.5585 92.2458 87.1851 92.2458Z" fill="#B4B6BC"/>
<path d="M25.8947 79.3806C24.5213 79.3806 23.2487 78.4983 22.8169 77.1205C22.2846 75.4209 23.2294 73.6096 24.9273 73.0757C36.8003 69.3491 49.1302 67.7628 61.5326 68.3459C63.3092 68.431 64.6858 69.9414 64.6007 71.7213C64.5157 73.5043 63.0128 74.8652 61.2237 74.791C49.5741 74.2414 38.0068 75.7314 26.8612 79.2314C26.5402 79.3318 26.2128 79.3806 25.8947 79.3806Z" fill="#B4B6BC"/>
<path d="M87.185 79.3806C86.8669 79.3806 86.539 79.3318 86.2181 79.231C82.1419 77.9504 77.9362 76.9234 73.7181 76.1802C71.9632 75.8697 70.7915 74.1971 71.1036 72.4423C71.4092 70.6891 73.0915 69.5157 74.8398 69.8262C79.3322 70.6185 83.8084 71.7117 88.1528 73.0758C89.8507 73.6096 90.7959 75.4209 90.2632 77.1205C89.831 78.4988 88.5584 79.3806 87.185 79.3806Z" fill="#B4B6BC"/>
<path d="M25.8947 66.4393C24.5213 66.4393 23.2487 65.5571 22.8169 64.1793C22.2846 62.4797 23.2294 60.6684 24.9273 60.1345C43.2648 54.3777 62.8306 53.7365 81.4955 58.2821C83.2281 58.7043 84.2898 60.4494 83.8677 62.1805C83.4455 63.9099 81.691 64.9635 79.9709 64.551C62.4431 60.2777 44.0773 60.8841 26.8616 66.2902C26.5402 66.3906 26.2128 66.4393 25.8947 66.4393Z" fill="#B4B6BC"/>
<path d="M25.8947 53.5366C24.5213 53.5366 23.2487 52.6543 22.8169 51.2765C22.2846 49.5769 23.2294 47.7656 24.9273 47.2317C31.4169 45.1934 38.133 43.7793 44.8963 43.0293C46.6761 42.8136 48.264 44.1116 48.4592 45.8785C48.6544 47.6491 47.3785 49.2446 45.6084 49.4398C39.2608 50.1454 32.9507 51.4733 26.8616 53.387C26.5402 53.4874 26.2128 53.5366 25.8947 53.5366Z" fill="#B4B6BC"/>
<path d="M80.7366 51.739C80.4845 51.739 80.2261 51.7092 79.9712 51.6475C72.8204 49.9056 65.4616 48.962 58.1055 48.8471C56.3224 48.8189 54.9019 47.3523 54.9301 45.5709C54.9583 43.7911 56.3507 42.2915 58.2063 42.3955C66.0438 42.5201 73.8785 43.5233 81.4958 45.3786C83.2285 45.8007 84.2902 47.5459 83.868 49.2769C83.5083 50.7515 82.1886 51.739 80.7366 51.739Z" fill="#B4B6BC"/>
<path d="M25.8947 40.671C24.5213 40.671 23.2487 39.7887 22.8169 38.4109C22.2846 36.7113 23.2294 34.9 24.9273 34.3661C38.9866 29.9512 53.5342 28.5335 68.1858 30.1637C69.9564 30.3589 71.2322 31.9545 71.0366 33.725C70.8415 35.494 69.266 36.8044 67.4737 36.5742C53.7261 35.0496 40.0576 36.3742 26.8612 40.5214C26.5402 40.6222 26.2128 40.671 25.8947 40.671Z" fill="#B4B6BC"/>
<path d="M25.8947 27.7302C24.5213 27.7302 23.2487 26.8468 22.8168 25.4685C22.2846 23.7673 23.2293 21.9577 24.9305 21.4254C27.1483 20.729 29.385 20.1069 31.5805 19.573C33.2975 19.1492 35.0551 20.2141 35.4773 21.9452C35.8995 23.6762 34.8346 25.4214 33.1051 25.8419C31.0451 26.3427 28.9438 26.927 26.8584 27.5806C26.537 27.681 26.2128 27.7302 25.8947 27.7302Z" fill="#B4B6BC"/>
<path d="M80.7366 25.9315C80.4846 25.9315 80.2261 25.9016 79.9713 25.8399C68.6967 23.0944 57.1354 22.3557 45.6056 23.6331C43.835 23.8504 42.2378 22.554 42.0427 20.7839C41.8475 19.0133 43.1233 17.4178 44.8935 17.2226C57.1697 15.8553 69.4902 16.6492 81.4955 19.571C83.2281 19.9932 84.2898 21.7383 83.8677 23.4694C83.5084 24.9436 82.1886 25.9315 80.7366 25.9315Z" fill="#B4B6BC"/>
<path d="M80.7335 60.1225C80.7339 61.4104 82.1694 62.179 83.2411 61.4644L90.4109 56.6846L97.5807 61.4644C98.6524 62.179 100.088 61.4108 100.088 60.1225V10.3927C100.088 9.11848 99.3452 7.94227 98.1807 7.42452C93.1577 5.19065 87.9956 3.39912 82.7524 2.01404C81.7294 1.74388 80.7242 2.53501 80.7246 3.59307L80.7335 60.1225Z" fill="#5D647F"/>
</svg>
