<svg width="200" height="200" viewBox="0 0 200 200" fill="none" xmlns="http://www.w3.org/2000/svg">
<g clip-path="url(#clip0)">
<path d="M200 100C200 114.792 196.788 128.833 191.025 141.466C181.172 163.062 163.861 180.534 142.387 190.601C138.498 192.421 134.47 194 130.322 195.314C125.658 196.805 120.845 197.951 115.906 198.738C115.886 198.743 115.862 198.747 115.84 198.747C113.417 199.135 110.971 199.432 108.495 199.641C107.967 199.686 107.437 199.727 106.906 199.763C106.158 199.812 105.408 199.857 104.652 199.89C103.11 199.963 101.559 200 100 200C98.3994 200 96.8124 199.963 95.2332 199.886C94.519 199.854 93.8034 199.812 93.0893 199.759C92.5552 199.722 92.0242 199.686 91.4932 199.641C88.9587 199.429 86.4487 199.118 83.9722 198.718C82.7881 198.526 81.6086 198.318 80.4413 198.085C75.3754 197.081 70.4529 195.699 65.6982 193.959C62.9425 192.955 60.2448 191.832 57.608 190.596C56.7108 190.175 55.8167 189.738 54.9301 189.285C52.6535 188.135 50.4288 186.897 48.2574 185.579C37.3795 178.992 27.861 170.387 20.2118 160.286C15.6204 154.221 11.7065 147.617 8.58002 140.579C3.06549 128.18 0 114.449 0 100C0 44.7708 44.7708 0 100 0C155.229 0 200 44.7708 200 100V100Z" fill="#FFE152"/>
<path d="M80.4413 129.771V198.085C75.3754 197.081 70.4529 195.698 65.6983 193.959C62.9426 192.955 60.2448 191.832 57.6081 190.596C56.7109 190.175 55.8167 189.738 54.9302 189.285C52.6536 188.135 50.4288 186.897 48.2575 185.579C37.3795 178.992 27.8611 170.387 20.2119 160.286C15.6205 154.221 11.7066 147.617 8.58008 140.579V129.771C8.58008 117.233 17.0945 106.682 28.6576 103.592C29.0818 103.477 29.506 103.371 29.9393 103.282C31.0853 103.029 32.2648 102.856 33.4656 102.759C34.1965 102.702 34.9351 102.669 35.6812 102.669H53.3341C55.3055 102.669 57.2281 102.878 59.0821 103.282C59.1874 103.302 59.2942 103.326 59.3995 103.351C59.7108 103.421 60.0251 103.497 60.3303 103.58C60.3394 103.584 60.347 103.584 60.3547 103.587C63.408 104.404 66.2446 105.739 68.7714 107.494C75.824 112.387 80.4413 120.538 80.4413 129.771Z" fill="#2BA1CF"/>
<path d="M80.4414 129.771V198.085C75.3755 197.081 70.453 195.698 65.6984 193.959C62.9426 192.955 60.2449 191.832 57.6082 190.596C56.7109 190.175 55.8168 189.738 54.9302 189.285C52.6536 188.135 50.4289 186.897 48.2576 185.579C37.3796 178.992 27.8611 170.387 20.2119 160.286V129.771C20.2119 117.233 28.7263 106.682 40.2894 103.592C40.7151 103.477 41.1393 103.371 41.5712 103.282C42.7186 103.029 43.8981 102.856 45.0975 102.759C45.8284 102.702 46.5669 102.669 47.3146 102.669H53.3342C55.3056 102.669 57.2282 102.878 59.0822 103.282C59.1874 103.302 59.2943 103.326 59.3995 103.351C59.7108 103.421 60.0251 103.497 60.3303 103.58C60.3395 103.584 60.3471 103.584 60.3547 103.587C63.408 104.404 66.2446 105.739 68.7715 107.494C75.8241 112.387 80.4414 120.538 80.4414 129.771Z" fill="#66BAED"/>
<path d="M60.4218 103.281L60.3577 103.587L52.2491 141.3C51.4709 144.924 48.2819 147.551 44.577 147.554C44.5541 147.554 44.5328 147.554 44.5114 147.554C44.487 147.554 44.4641 147.554 44.4397 147.554C40.7333 147.551 37.5458 144.924 36.7676 141.3L28.6591 103.591L28.595 103.281H60.4218Z" fill="#F2F0EC"/>
<path d="M44.5084 113.765L32.3059 120.546L28.595 103.281L36.1771 98.8159" fill="#D8D5D0"/>
<path d="M44.5083 113.765L56.7108 120.546L60.4217 103.281L52.8396 98.8159" fill="#D8D5D0"/>
<path d="M8.07642 96.1364V55.2612C8.07642 51.1077 8.76917 47.0382 10.1364 43.1655C15.2526 28.6086 29.0664 18.8247 44.5098 18.8247C46.4233 18.8247 48.3322 18.9727 50.1876 19.2657C58.6715 20.5917 66.4565 24.9221 72.1008 31.4605C77.8045 38.0691 80.9463 46.5209 80.9463 55.2612V96.1364" fill="#CC7A3B"/>
<path d="M23.0637 56.8574C23.0637 71.3151 31.5308 88.0417 36.1801 96.1365H8.07495V55.2613C8.07495 51.1094 8.76923 47.0399 10.1349 43.1656C15.2206 28.6927 28.9078 18.9377 44.2444 18.8279C33.0429 19.1071 23.0637 37.0789 23.0637 56.8574Z" fill="#A35418"/>
<path d="M54.1808 92.2288V104.097C54.1808 108.441 51.3167 112.114 47.3708 113.333C46.4675 113.614 45.5046 113.765 44.5098 113.765C39.1692 113.765 34.8418 109.438 34.8418 104.097V92.2288H54.1808Z" fill="#EAB599"/>
<path d="M54.1808 103.345V104.097C54.1808 108.441 51.3167 112.114 47.3708 113.333C43.8109 112.239 41.1345 109.143 40.6401 105.356C41.2856 105.396 41.9356 105.415 42.5872 105.415C44.4167 105.415 46.2111 105.27 47.9567 104.984C50.1097 104.637 52.191 104.083 54.1808 103.345V103.345Z" fill="#F6CAAE"/>
<path d="M17.9855 72.7798C17.9855 77.2568 14.7156 80.9692 10.4324 81.6574C9.96552 81.7337 9.48334 81.7734 8.992 81.7734C4.02527 81.7734 0 77.7481 0 72.7798C0 67.8131 4.02527 63.7878 8.992 63.7878C9.48334 63.7878 9.96552 63.8275 10.4324 63.9038C14.7156 64.592 17.9855 68.3029 17.9855 72.7798Z" fill="#F6CAAE"/>
<path d="M17.9856 72.7798C17.9856 77.2568 14.7156 80.9692 10.4325 81.6574C9.65582 78.83 9.23926 75.853 9.23926 72.7798C9.23926 69.7083 9.65582 66.7313 10.4325 63.9038C14.7156 64.592 17.9856 68.3029 17.9856 72.7798Z" fill="#EAB599"/>
<path d="M12.2071 72.7799C12.2071 74.556 10.7682 75.9949 8.99207 75.9949C7.21747 75.9949 5.77856 74.556 5.77856 72.7799C5.77856 71.0053 7.21747 69.5664 8.99207 69.5664C10.7682 69.5664 12.2071 71.0053 12.2071 72.7799Z" fill="#EAB599"/>
<path d="M67.601 61.2977V92.2089C62.8235 96.7698 56.6971 99.9283 49.881 101.027C49.8276 101.036 49.7696 101.045 49.7162 101.054C48.0225 101.325 46.2845 101.459 44.5099 101.459C26.033 101.459 11.0535 86.4792 11.0535 68.0024V55.2613C11.0535 53.6301 11.1694 52.0249 11.3953 50.4563C19.3558 56.1814 30.7693 55.6153 38.0417 48.7427C40.4495 46.4677 42.1234 43.7592 43.0695 40.886C43.5959 45.9168 45.8969 50.8134 49.9756 54.6693C54.8309 59.253 61.2457 61.464 67.601 61.2977V61.2977Z" fill="#EAB599"/>
<path d="M67.601 61.2977V92.2089C62.8235 96.7698 56.6971 99.9283 49.881 101.027C49.8276 101.036 49.7696 101.045 49.7162 101.054C33.7128 98.5535 21.4722 84.7047 21.4722 68.0024V55.2613C21.4722 54.9225 21.4783 54.5853 21.4905 54.2496C27.3895 54.8539 33.5175 53.0198 38.0417 48.7412C40.4495 46.4677 42.1234 43.7577 43.0695 40.886C43.5959 45.9168 45.8969 50.8134 49.9756 54.6693C54.8309 59.253 61.2457 61.464 67.601 61.2977V61.2977Z" fill="#F6CAAE"/>
<path d="M62.4802 65.1764C62.4802 62.1063 59.9915 59.6191 56.923 59.6191C53.8544 59.6191 51.3657 62.1063 51.3657 65.1764" fill="#EAB599"/>
<path d="M37.6603 65.1764C37.6603 62.1063 35.1716 59.6191 32.1031 59.6191C29.0345 59.6191 26.5474 62.1063 26.5474 65.1764" fill="#EAB599"/>
<path d="M35.8994 67.5414C35.8994 69.638 34.1995 71.3378 32.103 71.3378C30.0064 71.3378 28.3081 69.638 28.3081 67.5414C28.3081 65.4449 30.0064 63.7466 32.103 63.7466C34.1995 63.7466 35.8994 65.4449 35.8994 67.5414Z" fill="#3D4159"/>
<path d="M60.7177 67.5414C60.7177 69.638 59.0193 71.3378 56.9228 71.3378C54.8262 71.3378 53.1279 69.638 53.1279 67.5414C53.1279 65.4449 54.8262 63.7466 56.9228 63.7466C59.0193 63.7466 60.7177 65.4449 60.7177 67.5414Z" fill="#3D4159"/>
<path d="M48.3093 77.098H40.7181C39.8132 77.098 39.0808 76.3641 39.0808 75.4608C39.0808 74.5574 39.8132 73.8235 40.7181 73.8235H48.3093C49.2126 73.8235 49.9451 74.5574 49.9451 75.4608C49.9451 76.3641 49.2126 77.098 48.3093 77.098Z" fill="#EAB599"/>
<path d="M44.513 87.4572C41.7115 87.4572 38.91 86.7553 36.3556 85.35C35.6354 84.9548 35.373 84.0499 35.7682 83.3297C36.1649 82.6095 37.0698 82.347 37.79 82.7422C41.9999 85.057 47.0261 85.057 51.236 82.7422C51.9562 82.3455 52.8611 82.6095 53.2578 83.3297C53.653 84.0499 53.3906 84.9548 52.6703 85.35C50.116 86.7553 47.3145 87.4572 44.513 87.4572Z" fill="#EAB599"/>
<path d="M35.1257 66.8717C35.1257 67.7704 34.3964 68.4983 33.4991 68.4983C32.6004 68.4983 31.8726 67.7704 31.8726 66.8717C31.8726 65.973 32.6004 65.2451 33.4991 65.2451C34.3964 65.2451 35.1257 65.973 35.1257 66.8717Z" fill="white"/>
<path d="M60.1303 66.8717C60.1303 67.7704 59.4025 68.4983 58.5052 68.4983C57.6065 68.4983 56.8787 67.7704 56.8787 66.8717C56.8787 65.973 57.6065 65.2451 58.5052 65.2451C59.4025 65.2451 60.1303 65.973 60.1303 66.8717Z" fill="white"/>
<path d="M67.2851 76.7869C67.2851 79.0879 65.4189 80.954 63.1164 80.954C60.8154 80.954 58.9492 79.0879 58.9492 76.7869C58.9492 74.4843 60.8154 72.6182 63.1164 72.6182C65.4189 72.6182 67.2851 74.4843 67.2851 76.7869Z" fill="#EAB599"/>
<path d="M30.0736 76.7869C30.0736 79.0879 28.209 80.954 25.9064 80.954C23.6054 80.954 21.7393 79.0879 21.7393 76.7869C21.7393 74.4843 23.6054 72.6182 25.9064 72.6182C28.209 72.6182 30.0736 74.4843 30.0736 76.7869Z" fill="#EAB599"/>
<path d="M191.025 128.948V141.466C181.172 163.062 163.861 180.534 142.387 190.601C138.498 192.421 134.47 194 130.322 195.314C125.658 196.805 120.845 197.951 115.906 198.738C115.886 198.743 115.861 198.747 115.84 198.747V128.948C115.84 114.07 127.298 101.865 141.878 100.69C142.645 100.624 143.416 100.597 144.195 100.597H162.662C164.845 100.597 166.971 100.836 169.012 101.306C181.616 104.187 191.025 115.474 191.025 128.948V128.948Z" fill="#BFD5DE"/>
<path d="M191.025 128.948V141.466C181.172 163.062 163.861 180.534 142.387 190.601C138.498 192.421 134.47 194 130.322 195.314V128.948C130.322 113.29 143.021 100.597 158.682 100.597H162.665C178.331 100.597 191.025 113.29 191.025 128.948Z" fill="#DDE8ED"/>
<path d="M125.677 69.3221C125.677 74.0066 122.256 77.89 117.776 78.6102C117.287 78.6895 116.783 78.7307 116.269 78.7307C111.072 78.7307 106.86 74.5193 106.86 69.3221C106.86 64.125 111.072 59.9136 116.269 59.9136C116.783 59.9136 117.287 59.9548 117.776 60.0341C122.256 60.7559 125.677 64.6392 125.677 69.3221Z" fill="#D3A489"/>
<path d="M161.044 110.825L153.432 123.035L145.819 110.825" fill="#F74F4F"/>
<path d="M163.673 157.526L153.432 170.45L143.188 157.526L153.433 119.858L163.673 157.526Z" fill="#F74F4F"/>
<path d="M125.677 69.3222C125.677 74.0067 122.256 77.89 117.776 78.6102C116.963 75.6516 116.528 72.5372 116.528 69.3222C116.528 66.1087 116.963 62.9944 117.776 60.0342C122.256 60.7559 125.677 64.6393 125.677 69.3222Z" fill="#BF8E75"/>
<path d="M119.632 69.3222C119.632 71.1792 118.126 72.6852 116.269 72.6852C114.412 72.6852 112.907 71.1792 112.907 69.3222C112.907 67.4652 114.412 65.9607 116.269 65.9607C118.126 65.9607 119.632 67.4652 119.632 69.3222V69.3222Z" fill="#BF8E75"/>
<path d="M153.429 112.202L140.663 119.298L136.78 101.233L144.711 96.5605" fill="#BFD5DE"/>
<path d="M153.429 112.202L166.196 119.298L170.079 101.233L162.146 96.5605" fill="#BFD5DE"/>
<path d="M181.183 69.3221C181.183 74.0066 184.604 77.89 189.084 78.6102C189.574 78.6895 190.077 78.7307 190.591 78.7307C195.789 78.7307 200 74.5193 200 69.3221C200 64.125 195.789 59.9136 190.591 59.9136C190.077 59.9136 189.574 59.9548 189.084 60.0341C184.604 60.7559 181.183 64.6392 181.183 69.3221Z" fill="#D3A489"/>
<path d="M181.183 69.3222C181.183 74.0067 184.604 77.89 189.084 78.6102C189.899 75.6516 190.332 72.5372 190.332 69.3222C190.332 66.1087 189.899 62.9944 189.084 60.0342C184.604 60.7559 181.183 64.6393 181.183 69.3222Z" fill="#BF8E75"/>
<path d="M193.955 69.3222C193.955 71.1792 192.449 72.6852 190.592 72.6852C188.735 72.6852 187.229 71.1792 187.229 69.3222C187.229 67.4652 188.735 65.9607 190.592 65.9607C192.449 65.9607 193.955 67.4652 193.955 69.3222Z" fill="#BF8E75"/>
<path d="M188.437 64.322C188.437 81.7414 175.711 96.193 159.049 98.8755C157.222 99.1761 155.345 99.3272 153.43 99.3272C134.096 99.3272 118.425 83.6564 118.425 64.322C118.425 55.1743 121.602 41.4414 127.347 35.2052C133.743 28.2609 143.243 29.3153 153.43 29.3153C155.345 29.3153 157.221 29.4679 159.049 29.7685C175.711 32.4509 188.437 46.901 188.437 64.322V64.322Z" fill="#BF8E75"/>
<path d="M163.548 89.6714V102.087C163.548 106.633 160.552 110.475 156.423 111.751C155.478 112.044 154.471 112.203 153.429 112.203C147.843 112.203 143.314 107.674 143.314 102.087V89.6714H163.548Z" fill="#BF8E75"/>
<path d="M163.548 101.3V102.087C163.548 106.633 160.551 110.475 156.422 111.751C152.698 110.606 149.898 107.367 149.38 103.404C150.056 103.445 150.735 103.467 151.419 103.467C153.332 103.467 155.209 103.314 157.037 103.015C159.289 102.652 161.465 102.074 163.548 101.3V101.3Z" fill="#D3A489"/>
<path d="M188.437 64.3219C188.437 81.7413 175.711 96.1929 159.049 98.8754C142.387 96.1929 129.662 81.7413 129.662 64.3219C129.662 53.595 134.486 43.9941 142.087 37.5717C146.826 33.5648 152.647 30.7983 159.049 29.7668C174.582 32.2678 186.699 45.0012 188.265 60.8307C188.379 61.9797 188.437 63.1454 188.437 64.3219V64.3219Z" fill="#D3A489"/>
<path d="M153.432 81.5629C150.499 81.5629 147.569 80.8289 144.897 79.3595C144.142 78.946 143.868 77.9984 144.283 77.2446C144.696 76.4909 145.644 76.2162 146.397 76.6312C150.801 79.0513 156.061 79.0513 160.466 76.6312C161.218 76.2162 162.166 76.4909 162.579 77.2446C162.994 77.9984 162.72 78.946 161.966 79.3595C159.294 80.8289 156.361 81.5629 153.432 81.5629V81.5629Z" fill="#BF8E75"/>
<path d="M145.976 62.2849C145.976 64.4775 144.199 66.2552 142.005 66.2552C139.812 66.2552 138.034 64.4775 138.034 62.2849C138.034 60.0906 139.812 58.313 142.005 58.313C144.199 58.313 145.976 60.0906 145.976 62.2849V62.2849Z" fill="#3D4159"/>
<path d="M168.828 62.2849C168.828 64.4775 167.05 66.2552 164.858 66.2552C162.663 66.2552 160.886 64.4775 160.886 62.2849C160.886 60.0906 162.663 58.313 164.858 58.313C167.05 58.313 168.828 60.0906 168.828 62.2849Z" fill="#3D4159"/>
<path d="M145.166 61.5829C145.166 62.5229 144.404 63.2858 143.465 63.2858C142.525 63.2858 141.763 62.5229 141.763 61.5829C141.763 60.6445 142.525 59.8816 143.465 59.8816C144.404 59.8816 145.166 60.6445 145.166 61.5829Z" fill="white"/>
<path d="M168.213 61.5829C168.213 62.5229 167.451 63.2858 166.511 63.2858C165.571 63.2858 164.81 62.5229 164.81 61.5829C164.81 60.6445 165.571 59.8816 166.511 59.8816C167.451 59.8816 168.213 60.6445 168.213 61.5829Z" fill="white"/>
<path d="M157.402 72.2825H149.46C148.514 72.2825 147.746 71.515 147.746 70.569C147.746 69.6229 148.514 68.8569 149.46 68.8569H157.402C158.348 68.8569 159.116 69.6229 159.116 70.569C159.114 71.515 158.348 72.2825 157.402 72.2825V72.2825Z" fill="#BF8E75"/>
<path d="M164.957 128.018H180.217V132.689H164.957V128.018Z" fill="#BFD5DE"/>
<path d="M151.382 19.3161C161.987 20.0729 170.502 28.6392 171.04 39.4226L171.141 41.4474H177.241L180.527 63.295L188.484 60.8322L187.416 39.4241C186.851 28.096 177.482 19.2184 166.145 19.2611L151.382 19.3161Z" fill="#2A2F4F"/>
<path d="M186.742 10.8657C195.186 19.3099 195.186 33.0016 186.742 41.4459C178.298 49.8901 164.606 49.8901 156.162 41.4459L186.742 10.8657Z" fill="#3D4159"/>
<path d="M156.161 41.446H129.623L126.337 63.295L118.379 60.8322L119.446 39.4226C120.01 28.0976 129.379 19.2169 140.718 19.2597L179.047 19.4046L184.114 28.5248" fill="#3D4159"/>
<path d="M155.479 19.3161C144.875 20.0729 136.36 28.6392 135.822 39.4226L135.721 41.4474H129.622L126.335 63.295L118.378 60.8322L119.446 39.4241C120.01 28.096 129.379 19.2184 140.717 19.2611L155.479 19.3161Z" fill="#2A2F4F"/>
<path d="M142.387 183.102V190.6C129.518 196.629 115.155 200 99.9999 200C84.8448 200 70.4772 196.629 57.6079 190.596V183.102C57.6079 168.306 67.6528 155.861 81.2972 152.212C81.7961 152.078 82.2982 151.955 82.8078 151.845C84.1628 151.55 85.5544 151.347 86.9673 151.233C87.8325 151.163 88.7023 151.126 89.5842 151.126H110.408C112.738 151.126 115.004 151.372 117.192 151.845C117.319 151.869 117.445 151.898 117.567 151.927C117.935 152.013 118.301 152.103 118.664 152.2C118.678 152.203 118.681 152.203 118.693 152.208C122.294 153.171 125.645 154.747 128.621 156.816C136.943 162.588 142.387 172.208 142.387 183.102V183.102Z" fill="#3D4159"/>
<path d="M118.771 151.845L118.693 152.208L108.495 199.641C107.967 199.686 107.437 199.727 106.906 199.763C106.158 199.812 105.408 199.857 104.652 199.89C103.11 199.963 101.559 200 99.9999 200C98.3993 200 96.8124 199.963 95.2331 199.885C94.519 199.853 93.8033 199.812 93.0892 199.759C92.5552 199.722 92.0242 199.686 91.4932 199.641L81.2972 152.212L81.2209 151.845H118.771Z" fill="#66BAED"/>
<path d="M108.581 162.665L99.9969 176.431L91.4138 162.665" fill="#3D4159"/>
<path d="M106.906 199.764C106.159 199.812 105.408 199.857 104.652 199.89C103.11 199.964 101.56 200 100 200C98.3994 200 96.8125 199.964 95.2332 199.886C94.5191 199.854 93.8035 199.812 93.0894 199.759L100 172.849L106.906 199.764Z" fill="#3D4159"/>
<path d="M99.9954 164.217L85.5988 172.217L81.2195 151.848L90.1642 146.579" fill="#2BA1CF"/>
<path d="M99.9954 164.217L114.391 172.217L118.77 151.848L109.825 146.579" fill="#2BA1CF"/>
<path d="M119.315 179.335H123.881L115.906 198.738C112.216 199.33 108.461 199.718 104.652 199.89L118.664 152.2L118.771 151.845L128.621 155.061L119.315 179.335Z" fill="#2A2F4F"/>
<path d="M95.2333 199.885C91.4201 199.71 87.6619 199.315 83.9723 198.718L76.0042 179.335H80.5711L71.2617 155.061L81.1143 151.845L81.2211 152.2L95.2333 199.885Z" fill="#2A2F4F"/>
<path d="M111.406 138.809V152.809C111.406 157.936 108.026 162.268 103.371 163.707C102.304 164.038 101.169 164.216 99.9938 164.216C93.6935 164.216 88.5879 159.109 88.5879 152.809V138.809H111.406Z" fill="#EAB599"/>
<path d="M111.406 151.923V152.811C111.406 157.936 108.026 162.268 103.371 163.708C99.1699 162.416 96.0114 158.765 95.4285 154.295C96.1914 154.343 96.9574 154.366 97.7264 154.366C99.8856 154.366 102.002 154.195 104.062 153.857C106.602 153.448 109.056 152.794 111.406 151.923V151.923Z" fill="#F6CAAE"/>
<path d="M68.7011 115.863C68.7011 121.144 64.8422 125.523 59.79 126.337C59.2376 126.425 58.67 126.472 58.0917 126.472C52.2308 126.472 47.4807 121.724 47.4807 115.863C47.4807 110.002 52.2292 105.252 58.0917 105.252C58.67 105.252 59.2376 105.299 59.79 105.389C64.8422 106.203 68.7011 110.582 68.7011 115.863Z" fill="#F6CAAE"/>
<path d="M68.7013 115.863C68.7013 121.144 64.8423 125.523 59.7902 126.337C58.8731 123 58.3833 119.487 58.3833 115.863C58.3833 112.238 58.8731 108.727 59.7902 105.389C64.8423 106.203 68.7013 110.582 68.7013 115.863Z" fill="#EAB599"/>
<path d="M61.8834 115.863C61.8834 117.957 60.1851 119.655 58.0916 119.655C55.9966 119.655 54.2998 117.957 54.2998 115.863C54.2998 113.768 55.9966 112.071 58.0916 112.071C60.1851 112.071 61.8834 113.768 61.8834 115.863Z" fill="#EAB599"/>
<path d="M131.291 115.863C131.291 121.144 135.15 125.523 140.202 126.337C140.753 126.425 141.322 126.472 141.901 126.472C147.762 126.472 152.512 121.724 152.512 115.863C152.512 110.002 147.763 105.252 141.901 105.252C141.322 105.252 140.753 105.299 140.202 105.389C135.15 106.203 131.291 110.582 131.291 115.863Z" fill="#F6CAAE"/>
<path d="M131.291 115.863C131.291 121.144 135.15 125.523 140.202 126.337C141.119 123 141.609 119.487 141.609 115.863C141.609 112.238 141.119 108.727 140.202 105.389C135.15 106.203 131.291 110.582 131.291 115.863Z" fill="#EAB599"/>
<path d="M139.471 95.1935V110.225C139.471 129.869 125.12 146.164 106.331 149.188C106.268 149.199 106.201 149.21 106.139 149.22C104.14 149.541 102.089 149.698 99.9954 149.698C78.1951 149.698 60.5239 132.025 60.5239 110.227V95.1935C60.5239 90.6037 61.3067 86.1924 62.7532 82.0939C68.1518 66.7313 82.7896 55.7175 99.9954 55.7175H99.9984C102.089 55.7175 104.143 55.8793 106.145 56.1951C125.026 59.1447 139.471 75.4838 139.471 95.1935V95.1935Z" fill="#EAB599"/>
<path d="M145.693 115.863C145.693 117.957 143.996 119.655 141.901 119.655C139.807 119.655 138.109 117.957 138.109 115.863C138.109 113.768 139.807 112.071 141.901 112.071C143.996 112.071 145.693 113.768 145.693 115.863V115.863Z" fill="#EAB599"/>
<path d="M139.47 95.1935V110.225C139.47 129.868 125.121 146.164 106.331 149.188C106.267 149.199 106.201 149.21 106.137 149.22C87.2574 146.269 72.8149 129.932 72.8149 110.225V95.1935C72.8149 75.4837 87.2604 59.1446 106.145 56.1951C125.026 59.1446 139.47 75.4837 139.47 95.1935V95.1935Z" fill="#F6CAAE"/>
<path d="M91.5894 107.925C91.5894 110.399 89.5844 112.404 87.1125 112.404C84.639 112.404 82.634 110.399 82.634 107.925C82.634 105.453 84.639 103.448 87.1125 103.448C89.5844 103.448 91.5894 105.453 91.5894 107.925V107.925Z" fill="#3D4159"/>
<path d="M117.36 107.925C117.36 110.399 115.355 112.404 112.882 112.404C110.408 112.404 108.403 110.399 108.403 107.925C108.403 105.453 110.408 103.448 112.882 103.448C115.355 103.448 117.36 105.453 117.36 107.925V107.925Z" fill="#3D4159"/>
<path d="M90.6769 107.137C90.6769 108.196 89.8179 109.055 88.7574 109.055C87.6984 109.055 86.8394 108.196 86.8394 107.137C86.8394 106.076 87.6984 105.217 88.7574 105.217C89.8179 105.217 90.6769 106.076 90.6769 107.137Z" fill="white"/>
<path d="M116.666 107.137C116.666 108.196 115.807 109.055 114.748 109.055C113.687 109.055 112.828 108.196 112.828 107.137C112.828 106.076 113.687 105.217 114.748 105.217C115.807 105.217 116.666 106.076 116.666 107.137Z" fill="white"/>
<path d="M104.475 117.445H95.5184C94.4518 117.445 93.5867 116.58 93.5867 115.514C93.5867 114.445 94.4518 113.582 95.5184 113.582H104.475C105.542 113.582 106.407 114.445 106.407 115.514C106.406 116.58 105.54 117.445 104.475 117.445Z" fill="#EAB599"/>
<path d="M99.997 129.666C96.6919 129.666 93.3854 128.838 90.3733 127.181C89.5233 126.714 89.2121 125.646 89.6805 124.797C90.1474 123.947 91.2156 123.637 92.0655 124.103C97.0322 126.834 102.962 126.834 107.929 124.103C108.778 123.636 109.847 123.946 110.313 124.797C110.782 125.646 110.471 126.714 109.621 127.181C106.607 128.838 103.302 129.666 99.997 129.666V129.666Z" fill="#EAB599"/>
<path d="M139.471 81.5521V96.9497H132.124V84.8907L79.0909 75.0366L67.8696 72.9507V96.9497H60.5225V81.5505C60.5225 63.9968 74.7498 49.7695 92.3004 49.7695H107.693C108.112 49.7695 108.53 49.7772 108.948 49.7985C125.914 50.4516 139.471 64.4164 139.471 81.5521V81.5521Z" fill="#2A2F4F"/>
<path d="M139.471 81.5521V96.9498H132.124V84.8907L79.0908 75.0366C82.0129 61.0016 94.1894 50.3677 108.948 49.7986C125.914 50.4517 139.471 64.4165 139.471 81.5521Z" fill="#3D4159"/>
</g>
<defs>
<clipPath id="clip0">
<rect width="200" height="200" fill="white"/>
</clipPath>
</defs>
</svg>
