<svg width="24" height="25" viewBox="0 0 24 25" fill="none" xmlns="http://www.w3.org/2000/svg">
<path d="M22.8 15.4448H22V4.26424C22 3.93927 21.8209 3.67579 21.6 3.67579H18.8V1.91045C18.8 1.58547 18.6209 1.322 18.4 1.322H12C11.7791 1.322 11.6 1.58547 11.6 1.91045V3.12265L9.0288 0.938915C8.8375 0.776429 8.59285 0.872861 8.4824 1.15429L3.6824 13.3852C3.57195 13.6666 3.6375 14.0266 3.8288 14.189L5.3072 15.4448H1.2C0.53725 15.4448 0 16.2352 0 17.2101V18.387C0 19.362 0.53725 20.1524 1.2 20.1524H2.4V24.2715C2.4 24.5965 2.5791 24.86 2.8 24.86H4.4C4.6209 24.86 4.8 24.5965 4.8 24.2715V20.1524H19.2V24.2715C19.2 24.5965 19.3791 24.86 19.6 24.86H21.2C21.4209 24.86 21.6 24.5965 21.6 24.2715V20.1524H22.8C23.4628 20.1524 24 19.362 24 18.387V17.2101C24 16.2352 23.4628 15.4448 22.8 15.4448ZM18.8 4.85269H21.2V15.4448H18.8V4.85269ZM15.6 2.4989H18V15.4448H15.6V2.4989ZM12.4 2.4989H14.8V15.4448H12.4V2.4989ZM4.5752 13.4641L8.9752 2.25292L11.0552 4.01827L6.6552 15.2294L4.5752 13.4641ZM11.6 4.9798V15.4448H7.4928L11.6 4.9798ZM4 23.6831H3.2V20.1524H4V23.6831ZM20.8 23.6831H20V20.1524H20.8V23.6831ZM23.2 18.387C23.2 18.712 23.0209 18.9755 22.8 18.9755H1.2C0.9791 18.9755 0.8 18.712 0.8 18.387V17.2101C0.8 16.8852 0.9791 16.6217 1.2 16.6217H22.8C23.0209 16.6217 23.2 16.8852 23.2 17.2101V18.387Z" fill="#6A5949"/>
<path d="M14 3.0874H13.2C12.9791 3.0874 12.8 3.35088 12.8 3.67585C12.8 4.00082 12.9791 4.2643 13.2 4.2643H14C14.2209 4.2643 14.4 4.00082 14.4 3.67585C14.4 3.35088 14.2209 3.0874 14 3.0874Z" fill="#6A5949"/>
<path d="M17.2 3.0874H16.4C16.1791 3.0874 16 3.35088 16 3.67585C16 4.00082 16.1791 4.2643 16.4 4.2643H17.2C17.4209 4.2643 17.6 4.00082 17.6 3.67585C17.6 3.35088 17.4209 3.0874 17.2 3.0874Z" fill="#6A5949"/>
<path d="M20.4 5.44116H19.6C19.3791 5.44116 19.2 5.70464 19.2 6.02961C19.2 6.35458 19.3791 6.61806 19.6 6.61806H20.4C20.6209 6.61806 20.8 6.35458 20.8 6.02961C20.8 5.70464 20.6209 5.44116 20.4 5.44116Z" fill="#6A5949"/>
<path d="M14 13.6794H13.2C12.9791 13.6794 12.8 13.9429 12.8 14.2679C12.8 14.5929 12.9791 14.8563 13.2 14.8563H14C14.2209 14.8563 14.4 14.5929 14.4 14.2679C14.4 13.9428 14.2209 13.6794 14 13.6794Z" fill="#6A5949"/>
<path d="M9.0679 4.37015L9.7607 4.9586C9.9521 5.12109 10.1968 5.02451 10.3073 4.74294C10.4177 4.46136 10.3521 4.10131 10.1607 3.93882L9.4679 3.35037C9.2765 3.18789 9.03175 3.28446 8.9213 3.56604C8.81085 3.84761 8.8765 4.2076 9.0679 4.37015Z" fill="#6A5949"/>
<path d="M6.56471 13.116C6.56316 13.1147 6.56161 13.1134 6.56006 13.1121L5.86726 12.5236C5.67521 12.363 5.43101 12.4619 5.32186 12.7444C5.21371 13.0243 5.27851 13.38 5.46726 13.5428L6.16006 14.1313C6.35061 14.2957 6.59571 14.2016 6.70746 13.9213C6.81921 13.641 6.75531 13.2804 6.56471 13.116Z" fill="#6A5949"/>
<path d="M17.2 13.6794H16.4C16.1791 13.6794 16 13.9429 16 14.2679C16 14.5929 16.1791 14.8563 16.4 14.8563H17.2C17.4209 14.8563 17.6 14.5929 17.6 14.2679C17.6 13.9428 17.4209 13.6794 17.2 13.6794Z" fill="#6A5949"/>
<path d="M20.4 13.6794H19.6C19.3791 13.6794 19.2 13.9429 19.2 14.2679C19.2 14.5929 19.3791 14.8563 19.6 14.8563H20.4C20.6209 14.8563 20.8 14.5929 20.8 14.2679C20.8 13.9428 20.6209 13.6794 20.4 13.6794Z" fill="#6A5949"/>
</svg>
